G04*
G04 #@! TF.GenerationSoftware,Altium Limited,Altium Designer,21.1.1 (26)*
G04*
G04 Layer_Color=65535*
%FSLAX44Y44*%
%MOMM*%
G71*
G04*
G04 #@! TF.SameCoordinates,2A0D6200-5384-45BE-AE35-18FCF66999C0*
G04*
G04*
G04 #@! TF.FilePolarity,Positive*
G04*
G01*
G75*
%ADD10C,0.2000*%
%ADD11C,0.5000*%
%ADD12C,0.4000*%
%ADD13C,0.1500*%
D10*
X115686Y503411D02*
G03*
X187075Y495092I36714J4589D01*
G01*
X633350Y170180D02*
G03*
X633350Y157480I0J-6350D01*
G01*
X396990Y239160D02*
X430010D01*
X396990Y218840D02*
Y239160D01*
Y218840D02*
X430010D01*
Y239160D01*
X128000Y127000D02*
Y165000D01*
X141000D01*
X183000D02*
X196000D01*
Y127000D02*
Y165000D01*
X5500Y113750D02*
X37500D01*
Y55750D02*
Y113750D01*
X5500Y55750D02*
X37500D01*
X5500D02*
Y113750D01*
X183410Y379490D02*
Y412510D01*
X163090D02*
X183410D01*
X163090Y379490D02*
Y412510D01*
Y379490D02*
X183410D01*
X275490Y438840D02*
Y459160D01*
X308510D01*
Y438840D02*
Y459160D01*
X275490Y438840D02*
X308510D01*
X275490Y417840D02*
X308510D01*
Y438160D01*
X275490D02*
X308510D01*
X275490Y417840D02*
Y438160D01*
X80840Y287510D02*
X101160D01*
Y254490D02*
Y287510D01*
X80840Y254490D02*
X101160D01*
X80840D02*
Y287510D01*
X82490Y370160D02*
X115510D01*
X82490Y349840D02*
Y370160D01*
Y349840D02*
X115510D01*
Y370160D01*
X84490Y204840D02*
Y225160D01*
X117510D01*
Y204840D02*
Y225160D01*
X84490Y204840D02*
X117510D01*
X84490Y182840D02*
X117510D01*
Y203160D01*
X84490D02*
X117510D01*
X84490Y182840D02*
Y203160D01*
Y157840D02*
Y178160D01*
X117510D01*
Y157840D02*
Y178160D01*
X84490Y157840D02*
X117510D01*
X228160Y259490D02*
Y292510D01*
X207840D02*
X228160D01*
X207840Y259490D02*
Y292510D01*
Y259490D02*
X228160D01*
X599186Y447802D02*
X619506D01*
X599186D02*
Y480822D01*
X619506D01*
Y447802D02*
Y480822D01*
X596900Y447650D02*
Y480670D01*
X576580D02*
X596900D01*
X576580Y447650D02*
Y480670D01*
Y447650D02*
X596900D01*
X625840Y407490D02*
X646160D01*
X625840D02*
Y440510D01*
X646160D01*
Y407490D02*
Y440510D01*
X353490Y109160D02*
X386510D01*
X353490Y88840D02*
Y109160D01*
Y88840D02*
X386510D01*
Y109160D01*
X599490Y216840D02*
Y237160D01*
X632510D01*
Y216840D02*
Y237160D01*
X599490Y216840D02*
X632510D01*
X227482Y457962D02*
X260502D01*
X227482Y437642D02*
Y457962D01*
Y437642D02*
X260502D01*
Y457962D01*
X563524Y361442D02*
X596544D01*
X563524Y341122D02*
Y361442D01*
Y341122D02*
X596544D01*
Y361442D01*
X653840Y182740D02*
X674160D01*
X653840D02*
Y215760D01*
X674160D01*
Y182740D02*
Y215760D01*
X39370Y263500D02*
Y296520D01*
X19050D02*
X39370D01*
X19050Y263500D02*
Y296520D01*
Y263500D02*
X39370D01*
X653840Y248510D02*
X674160D01*
Y215490D02*
Y248510D01*
X653840Y215490D02*
X674160D01*
X653840D02*
Y248510D01*
X259840Y45490D02*
Y78510D01*
Y45490D02*
X280160D01*
Y78510D01*
X259840D02*
X280160D01*
X242840Y138490D02*
X263160D01*
X242840D02*
Y171510D01*
X263160D01*
Y138490D02*
Y171510D01*
X9754Y243078D02*
X42774D01*
Y263398D01*
X9754D02*
X42774D01*
X9754Y243078D02*
Y263398D01*
X633340Y248510D02*
X653660D01*
Y215490D02*
Y248510D01*
X633340Y215490D02*
X653660D01*
X633340D02*
Y248510D01*
X259490Y99160D02*
X292510D01*
X259490Y78840D02*
Y99160D01*
Y78840D02*
X292510D01*
Y99160D01*
X123490Y202840D02*
Y223160D01*
X156510D01*
Y202840D02*
Y223160D01*
X123490Y202840D02*
X156510D01*
X322580Y59944D02*
Y92964D01*
Y59944D02*
X342900D01*
Y92964D01*
X322580D02*
X342900D01*
X322580Y73914D02*
X342900D01*
Y40894D02*
Y73914D01*
X322580Y40894D02*
X342900D01*
X322580D02*
Y73914D01*
X87500Y23500D02*
X97500Y33500D01*
X82500Y23500D02*
X87500D01*
X42500Y33500D02*
X52500Y23500D01*
X57500D01*
X82500Y78500D02*
X97500D01*
X42500D02*
X57500D01*
X97500Y33500D02*
Y78500D01*
X42500Y33500D02*
Y51000D01*
Y78500D01*
X158700Y354560D02*
Y458700D01*
X133300Y354560D02*
Y458700D01*
X158700D01*
X133300Y354560D02*
X158700D01*
X103500Y100700D02*
X179700D01*
X103500Y75300D02*
X179700D01*
X103500D02*
Y100700D01*
X179700Y75300D02*
Y100700D01*
X649300Y405500D02*
X674700D01*
X649300Y481700D02*
X674700D01*
X649300Y405500D02*
Y481700D01*
X674700Y405500D02*
Y481700D01*
X12700Y303900D02*
Y354700D01*
X63500Y303900D02*
Y354700D01*
X12700Y303900D02*
X63500D01*
X12700Y354700D02*
X63500D01*
X12700Y373380D02*
Y424180D01*
X88900D01*
X12700Y373380D02*
X88900D01*
Y424180D01*
X12700Y459740D02*
Y510540D01*
X88900D01*
X12700Y459740D02*
X88900D01*
Y510540D01*
X172720Y520700D02*
X431800D01*
Y495300D02*
Y520700D01*
X172720Y495300D02*
X431800D01*
X172720D02*
Y520700D01*
X650240Y495300D02*
Y520700D01*
X441960D02*
X650240D01*
X441960Y495300D02*
X650240D01*
X441960D02*
Y520700D01*
X34370Y240000D02*
X36370D01*
X34370Y162000D02*
X36370D01*
X51620Y219000D02*
Y221500D01*
Y180500D02*
Y183000D01*
X-5880Y161000D02*
X10370D01*
X-5880D02*
Y241000D01*
X10370D01*
X370Y161000D02*
Y241000D01*
X7370Y161250D02*
Y241000D01*
X-14630Y236000D02*
X-9630D01*
X-14630Y166000D02*
X-9630D01*
X-14630Y146000D02*
Y256000D01*
X-26630Y146000D02*
X-14630D01*
X-26630Y256000D02*
X-14630D01*
X-19630Y206000D02*
X-14630Y201000D01*
X-19630Y206000D02*
X-14630Y201000D01*
X-19630Y196000D02*
X-14630Y201000D01*
X-19630Y196000D02*
X-14630Y201000D01*
X-29630D02*
X-14630D01*
X264160Y12700D02*
Y38100D01*
Y12700D02*
X472440D01*
X264160Y38100D02*
X472440D01*
Y12700D02*
Y38100D01*
X492760D02*
X650240D01*
X492760Y12700D02*
X650240D01*
X492760D02*
Y38100D01*
X650240Y12700D02*
Y38100D01*
X655000Y275000D02*
Y295000D01*
X595000Y275000D02*
Y295000D01*
X605000Y315000D02*
X645000D01*
X605000Y255000D02*
X645000D01*
X253000Y33000D02*
Y73000D01*
X193000Y33000D02*
Y73000D01*
X213000Y23000D02*
X233000D01*
X213000Y83000D02*
X233000D01*
X633350Y111830D02*
Y157480D01*
X632550Y111830D02*
X633350D01*
X277550D02*
X632550D01*
X633350Y170180D02*
Y215830D01*
X277550D02*
X633350D01*
X277550Y111830D02*
Y215830D01*
X189000Y333000D02*
Y335000D01*
X187000D02*
X189000D01*
X119000D02*
X121000D01*
X119000Y333000D02*
Y335000D01*
Y265000D02*
Y267000D01*
Y265000D02*
X121000D01*
X188000Y264000D02*
X189000Y265000D01*
X188000Y264000D02*
X190000Y266000D01*
Y431500D02*
Y437500D01*
X172000Y418500D02*
X190000D01*
X172000Y450500D02*
X190000D01*
X45750Y253750D02*
Y271750D01*
X77750Y253750D02*
Y271750D01*
X58750D02*
X64750D01*
X667000Y150000D02*
Y168000D01*
X635000Y150000D02*
Y168000D01*
X648000Y150000D02*
X654000D01*
X229980Y151940D02*
Y157940D01*
X211980Y138940D02*
X229980D01*
X211980Y170940D02*
X229980D01*
X475250Y265250D02*
Y303250D01*
X393250Y265250D02*
X475250D01*
X393250D02*
Y303250D01*
X475250D01*
X232000Y257000D02*
X270000D01*
X232000D02*
Y339000D01*
X270000D01*
Y257000D02*
Y339000D01*
X66380Y205030D02*
Y232970D01*
Y205030D02*
X81620D01*
Y232970D01*
X66380D02*
X81620D01*
Y175530D02*
Y203470D01*
X66380D02*
X81620D01*
X66380Y175530D02*
Y203470D01*
Y175530D02*
X81620D01*
X120802Y228600D02*
Y248920D01*
X85242Y228600D02*
X120802D01*
X85242D02*
Y248920D01*
X120802D01*
X653660Y180470D02*
Y216030D01*
X633340D02*
X653660D01*
X633340Y180470D02*
Y216030D01*
Y180470D02*
X653660D01*
X221840Y99220D02*
Y134780D01*
Y99220D02*
X242160D01*
Y134780D01*
X221840D02*
X242160D01*
X598780Y320040D02*
Y340360D01*
X563220Y320040D02*
X598780D01*
X563220D02*
Y340360D01*
X598780D01*
X563500Y361442D02*
X566040D01*
X563500Y376682D02*
X566040D01*
X563500Y361442D02*
Y376682D01*
X566040Y361442D02*
Y376682D01*
Y361442D02*
X596520D01*
X566040Y376682D02*
X596520D01*
Y361442D02*
Y376682D01*
X260732Y419862D02*
Y435102D01*
X230252D02*
X260732D01*
X230252Y419862D02*
X260732D01*
X230252D02*
Y435102D01*
X227712Y419862D02*
Y435102D01*
X230252D01*
X227712Y419862D02*
X230252D01*
X227720Y397880D02*
X230260D01*
X227720Y413120D02*
X230260D01*
X227720Y397880D02*
Y413120D01*
X230260Y397880D02*
Y413120D01*
Y397880D02*
X260740D01*
X230260Y413120D02*
X260740D01*
Y397880D02*
Y413120D01*
X227720Y377630D02*
X230260D01*
X227720Y392870D02*
X230260D01*
X227720Y377630D02*
Y392870D01*
X230260Y377630D02*
Y392870D01*
Y377630D02*
X260740D01*
X230260Y392870D02*
X260740D01*
Y377630D02*
Y392870D01*
X3668Y263686D02*
Y299686D01*
X17668Y263686D02*
Y299686D01*
X3668Y263686D02*
X17668D01*
X597808Y238000D02*
X633808D01*
X597808Y252000D02*
X633808D01*
Y238000D02*
Y252000D01*
X207160Y173220D02*
Y208780D01*
X186840D02*
X207160D01*
X186840Y173220D02*
Y208780D01*
Y173220D02*
X207160D01*
X451220Y42840D02*
X486780D01*
Y63160D01*
X451220D02*
X486780D01*
X451220Y42840D02*
Y63160D01*
X448160Y50220D02*
Y85780D01*
X427840D02*
X448160D01*
X427840Y50220D02*
Y85780D01*
Y50220D02*
X448160D01*
X88500Y99500D02*
X98500Y109500D01*
X83500Y99500D02*
X88500D01*
X43500Y109500D02*
X53500Y99500D01*
X58500D01*
X83500Y154500D02*
X98500D01*
X43500D02*
X58500D01*
X98500Y109500D02*
Y154500D01*
X43500Y109500D02*
Y127000D01*
Y154500D01*
X211090Y246530D02*
X231410D01*
Y210970D02*
Y246530D01*
X211090Y210970D02*
X231410D01*
X211090D02*
Y246530D01*
X190840Y211220D02*
X211160D01*
X190840D02*
Y246780D01*
X211160D01*
Y211220D02*
Y246780D01*
X208090Y329530D02*
X228410D01*
Y293970D02*
Y329530D01*
X208090Y293970D02*
X228410D01*
X208090D02*
Y329530D01*
X166590Y210720D02*
X186910D01*
X166590D02*
Y246280D01*
X186910D01*
Y210720D02*
Y246280D01*
X158280Y224840D02*
Y245160D01*
X122720Y224840D02*
X158280D01*
X122720D02*
Y245160D01*
X158280D01*
X12840Y460030D02*
X33160D01*
Y424470D02*
Y460030D01*
X12840Y424470D02*
X33160D01*
X12840D02*
Y460030D01*
X233220Y343840D02*
Y364160D01*
X268780D01*
Y343840D02*
Y364160D01*
X233220Y343840D02*
X268780D01*
X233720Y233840D02*
Y254160D01*
X269280D01*
Y233840D02*
Y254160D01*
X233720Y233840D02*
X269280D01*
X625840Y445220D02*
X646160D01*
X625840D02*
Y480780D01*
X646160D01*
Y445220D02*
Y480780D01*
X105840Y139780D02*
X126160D01*
Y104220D02*
Y139780D01*
X105840Y104220D02*
X126160D01*
X105840D02*
Y139780D01*
X198840Y135280D02*
X219160D01*
Y99720D02*
Y135280D01*
X198840Y99720D02*
X219160D01*
X198840D02*
Y135280D01*
X409280Y38840D02*
Y59160D01*
X373720Y38840D02*
X409280D01*
X373720D02*
Y59160D01*
X409280D01*
X295840Y76780D02*
X316160D01*
Y41220D02*
Y76780D01*
X295840Y41220D02*
X316160D01*
X295840D02*
Y76780D01*
X346456Y77978D02*
X366776D01*
Y42418D02*
Y77978D01*
X346456Y42418D02*
X366776D01*
X346456D02*
Y77978D01*
X50780Y511840D02*
Y532160D01*
X15220Y511840D02*
X50780D01*
X15220D02*
Y532160D01*
X50780D01*
X451220Y65840D02*
Y86160D01*
X486780D01*
Y65840D02*
Y86160D01*
X451220Y65840D02*
X486780D01*
X433220Y218840D02*
Y239160D01*
X468780D01*
Y218840D02*
Y239160D01*
X433220Y218840D02*
X468780D01*
X266700Y470408D02*
Y490728D01*
X231140Y470408D02*
X266700D01*
X231140D02*
Y490728D01*
X266700D01*
X390220Y65840D02*
Y86160D01*
X425780D01*
Y65840D02*
Y86160D01*
X390220Y65840D02*
X425780D01*
X389720Y88840D02*
Y109160D01*
X425280D01*
Y88840D02*
Y109160D01*
X389720Y88840D02*
X425280D01*
X470052Y89154D02*
Y109474D01*
X434492Y89154D02*
X470052D01*
X434492D02*
Y109474D01*
X470052D01*
X395970Y241840D02*
Y262160D01*
X431530D01*
Y241840D02*
Y262160D01*
X395970Y241840D02*
X431530D01*
X222660Y418220D02*
Y453780D01*
X202340D02*
X222660D01*
X202340Y418220D02*
Y453780D01*
Y418220D02*
X222660D01*
X471280Y241840D02*
Y262160D01*
X435720Y241840D02*
X471280D01*
X435720D02*
Y262160D01*
X471280D01*
X633220Y136160D02*
X668780D01*
X633220Y115840D02*
Y136160D01*
Y115840D02*
X668780D01*
Y136160D01*
X209804Y208686D02*
X230124D01*
Y173126D02*
Y208686D01*
X209804Y173126D02*
X230124D01*
X209804D02*
Y208686D01*
X79146Y283464D02*
Y303784D01*
X43586Y283464D02*
X79146D01*
X43586D02*
Y303784D01*
X79146D01*
X357664Y447997D02*
X352666D01*
X351000Y446331D01*
Y442998D01*
X352666Y441332D01*
X357664D01*
X362663D02*
X365995D01*
X367661Y442998D01*
Y446331D01*
X365995Y447997D01*
X362663D01*
X360997Y446331D01*
Y442998D01*
X362663Y441332D01*
X370993D02*
Y447997D01*
X372660D01*
X374326Y446331D01*
Y441332D01*
Y446331D01*
X375992Y447997D01*
X377658Y446331D01*
Y441332D01*
X380990Y438000D02*
Y447997D01*
X385989D01*
X387655Y446331D01*
Y442998D01*
X385989Y441332D01*
X380990D01*
X392653Y447997D02*
X395985D01*
X397652Y446331D01*
Y441332D01*
X392653D01*
X390987Y442998D01*
X392653Y444664D01*
X397652D01*
X402650Y449663D02*
Y447997D01*
X400984D01*
X404316D01*
X402650D01*
Y442998D01*
X404316Y441332D01*
X409314D02*
X412647D01*
X410981D01*
Y447997D01*
X409314D01*
X417645Y451329D02*
Y441332D01*
X422644D01*
X424310Y442998D01*
Y444664D01*
Y446331D01*
X422644Y447997D01*
X417645D01*
X427642Y441332D02*
X430974D01*
X429308D01*
Y451329D01*
X427642D01*
X440971Y441332D02*
X437639D01*
X435973Y442998D01*
Y446331D01*
X437639Y447997D01*
X440971D01*
X442637Y446331D01*
Y444664D01*
X435973D01*
X355664Y457000D02*
X349000D01*
X355664Y463665D01*
Y465331D01*
X353998Y466997D01*
X350666D01*
X349000Y465331D01*
X358997D02*
X360663Y466997D01*
X363995D01*
X365661Y465331D01*
Y463665D01*
X363995Y461998D01*
X365661Y460332D01*
Y458666D01*
X363995Y457000D01*
X360663D01*
X358997Y458666D01*
Y460332D01*
X360663Y461998D01*
X358997Y463665D01*
Y465331D01*
X360663Y461998D02*
X363995D01*
X368993Y457000D02*
Y466997D01*
X373992D01*
X375658Y465331D01*
Y461998D01*
X373992Y460332D01*
X368993D01*
X378990Y457000D02*
X382323D01*
X380657D01*
Y463665D01*
X378990D01*
X387321Y457000D02*
Y463665D01*
X392319D01*
X393985Y461998D01*
Y457000D01*
X397318D02*
X402316D01*
X403982Y458666D01*
X402316Y460332D01*
X398984D01*
X397318Y461998D01*
X398984Y463665D01*
X403982D01*
X417311Y457000D02*
Y463665D01*
X420644Y466997D01*
X423976Y463665D01*
Y457000D01*
Y461998D01*
X417311D01*
X427308Y463665D02*
Y457000D01*
Y460332D01*
X428974Y461998D01*
X430640Y463665D01*
X432307D01*
X443969Y466997D02*
Y457000D01*
X438971D01*
X437305Y458666D01*
Y461998D01*
X438971Y463665D01*
X443969D01*
X447302D02*
Y458666D01*
X448968Y457000D01*
X453966D01*
Y463665D01*
X457298Y457000D02*
X460631D01*
X458965D01*
Y463665D01*
X457298D01*
X465629Y457000D02*
Y463665D01*
X470628D01*
X472294Y461998D01*
Y457000D01*
X477292D02*
X480624D01*
X482290Y458666D01*
Y461998D01*
X480624Y463665D01*
X477292D01*
X475626Y461998D01*
Y458666D01*
X477292Y457000D01*
X495619Y466997D02*
Y458666D01*
X497285Y457000D01*
X500618D01*
X502284Y458666D01*
Y466997D01*
X505616Y457000D02*
Y463665D01*
X510615D01*
X512281Y461998D01*
Y457000D01*
X517279D02*
X520611D01*
X522277Y458666D01*
Y461998D01*
X520611Y463665D01*
X517279D01*
X515613Y461998D01*
Y458666D01*
X517279Y457000D01*
X264000Y431997D02*
Y423666D01*
X265666Y422000D01*
X268998D01*
X270665Y423666D01*
Y431997D01*
X265000Y408997D02*
X271665D01*
X268332D01*
Y399000D01*
X274997Y408997D02*
X281661Y399000D01*
Y408997D02*
X274997Y399000D01*
X265000Y380000D02*
Y389997D01*
X269998D01*
X271665Y388331D01*
Y384998D01*
X269998Y383332D01*
X265000D01*
X268332D02*
X271665Y380000D01*
X274997Y389997D02*
X281661Y380000D01*
Y389997D02*
X274997Y380000D01*
X550000Y97664D02*
Y91000D01*
X543335Y97664D01*
X541669D01*
X540003Y95998D01*
Y92666D01*
X541669Y91000D01*
X540003Y107661D02*
Y100997D01*
X545002D01*
X543335Y104329D01*
Y105995D01*
X545002Y107661D01*
X548334D01*
X550000Y105995D01*
Y102663D01*
X548334Y100997D01*
X318000Y93000D02*
Y96332D01*
Y94666D01*
X308003D01*
X309669Y93000D01*
X308003Y107995D02*
X309669Y104663D01*
X313002Y101331D01*
X316334D01*
X318000Y102997D01*
Y106329D01*
X316334Y107995D01*
X314668D01*
X313002Y106329D01*
Y101331D01*
X392000Y222000D02*
Y225332D01*
Y223666D01*
X382003D01*
X383669Y222000D01*
Y230331D02*
X382003Y231997D01*
Y235329D01*
X383669Y236995D01*
X390334D01*
X392000Y235329D01*
Y231997D01*
X390334Y230331D01*
X383669D01*
X294000Y221000D02*
Y224332D01*
Y222666D01*
X284003D01*
X285669Y221000D01*
X294000Y234329D02*
X284003D01*
X289002Y229331D01*
Y235995D01*
X515003Y227665D02*
Y221000D01*
X520002D01*
X518335Y224332D01*
Y225998D01*
X520002Y227665D01*
X523334D01*
X525000Y225998D01*
Y222666D01*
X523334Y221000D01*
X6998Y312000D02*
Y321997D01*
X2000Y316998D01*
X8665D01*
X2000Y346331D02*
X3666Y347997D01*
X6998D01*
X8665Y346331D01*
Y344664D01*
X6998Y342998D01*
X5332D01*
X6998D01*
X8665Y341332D01*
Y339666D01*
X6998Y338000D01*
X3666D01*
X2000Y339666D01*
X74665Y313000D02*
X68000D01*
X74665Y319664D01*
Y321331D01*
X72998Y322997D01*
X69666D01*
X68000Y321331D01*
X69000Y338000D02*
X72332D01*
X70666D01*
Y347997D01*
X69000Y346331D01*
X46000Y438997D02*
X49332D01*
X47666D01*
Y429000D01*
X46000D01*
X49332D01*
X60995Y437331D02*
X59329Y438997D01*
X55997D01*
X54331Y437331D01*
Y430666D01*
X55997Y429000D01*
X59329D01*
X60995Y430666D01*
X70992Y437331D02*
X69326Y438997D01*
X65993D01*
X64327Y437331D01*
Y435664D01*
X65993Y433998D01*
X69326D01*
X70992Y432332D01*
Y430666D01*
X69326Y429000D01*
X65993D01*
X64327Y430666D01*
X74324Y429000D02*
Y438997D01*
X79323D01*
X80989Y437331D01*
Y433998D01*
X79323Y432332D01*
X74324D01*
X84321Y429000D02*
X87653D01*
X85987D01*
Y438997D01*
X84321Y437331D01*
X55000Y525997D02*
X58332D01*
X56666D01*
Y516000D01*
X55000D01*
X58332D01*
X69995Y524331D02*
X68329Y525997D01*
X64997D01*
X63331Y524331D01*
Y517666D01*
X64997Y516000D01*
X68329D01*
X69995Y517666D01*
X79992Y524331D02*
X78326Y525997D01*
X74994D01*
X73327Y524331D01*
Y522664D01*
X74994Y520998D01*
X78326D01*
X79992Y519332D01*
Y517666D01*
X78326Y516000D01*
X74994D01*
X73327Y517666D01*
X83324Y516000D02*
Y525997D01*
X88323D01*
X89989Y524331D01*
Y520998D01*
X88323Y519332D01*
X83324D01*
X179003Y35000D02*
X187334D01*
X189000Y36666D01*
Y39998D01*
X187334Y41665D01*
X179003D01*
X180669Y51661D02*
X179003Y49995D01*
Y46663D01*
X180669Y44997D01*
X182335D01*
X184002Y46663D01*
Y49995D01*
X185668Y51661D01*
X187334D01*
X189000Y49995D01*
Y46663D01*
X187334Y44997D01*
X179003Y61658D02*
Y54994D01*
X189000D01*
Y61658D01*
X184002Y54994D02*
Y58326D01*
X189000Y64990D02*
X179003D01*
Y69989D01*
X180669Y71655D01*
X184002D01*
X185668Y69989D01*
Y64990D01*
Y68323D02*
X189000Y71655D01*
X577000Y261000D02*
X567003D01*
Y265998D01*
X568669Y267665D01*
X572002D01*
X573668Y265998D01*
Y261000D01*
Y264332D02*
X577000Y267665D01*
X567003Y277661D02*
Y270997D01*
X577000D01*
Y277661D01*
X572002Y270997D02*
Y274329D01*
X568669Y287658D02*
X567003Y285992D01*
Y282660D01*
X568669Y280993D01*
X570336D01*
X572002Y282660D01*
Y285992D01*
X573668Y287658D01*
X575334D01*
X577000Y285992D01*
Y282660D01*
X575334Y280993D01*
X567003Y297655D02*
Y290990D01*
X577000D01*
Y297655D01*
X572002Y290990D02*
Y294323D01*
X567003Y300987D02*
Y307652D01*
Y304319D01*
X577000D01*
X125140Y440380D02*
X128472D01*
X126806D01*
Y450377D01*
X125140Y448711D01*
X97000Y85000D02*
X100332D01*
X98666D01*
Y94997D01*
X97000Y93331D01*
X678500Y467250D02*
X681832D01*
X680166D01*
Y477247D01*
X678500Y475581D01*
X4500Y378500D02*
X7832D01*
X6166D01*
Y388497D01*
X4500Y386831D01*
X5750Y465500D02*
X9082D01*
X7416D01*
Y475497D01*
X5750Y473831D01*
X420000Y526000D02*
Y529332D01*
Y527666D01*
X410003D01*
X411669Y526000D01*
X639000D02*
Y529332D01*
Y527666D01*
X629003D01*
X630669Y526000D01*
X285020Y4540D02*
Y7872D01*
Y6206D01*
X275023D01*
X276689Y4540D01*
X513620D02*
Y7872D01*
Y6206D01*
X503623D01*
X505289Y4540D01*
X107336Y71998D02*
X104003D01*
X105669D01*
Y63668D01*
X104003Y62002D01*
X102337D01*
X100671Y63668D01*
X110668Y62002D02*
Y71998D01*
X115666D01*
X117332Y70332D01*
Y67000D01*
X115666Y65334D01*
X110668D01*
X125663Y62002D02*
Y71998D01*
X120665Y67000D01*
X127329D01*
X169335Y365998D02*
X166003D01*
X167669D01*
Y357668D01*
X166003Y356002D01*
X164337D01*
X162671Y357668D01*
X172668Y356002D02*
Y365998D01*
X177666D01*
X179332Y364332D01*
Y361000D01*
X177666Y359334D01*
X172668D01*
X182665Y364332D02*
X184331Y365998D01*
X187663D01*
X189329Y364332D01*
Y362666D01*
X187663Y361000D01*
X185997D01*
X187663D01*
X189329Y359334D01*
Y357668D01*
X187663Y356002D01*
X184331D01*
X182665Y357668D01*
X30336Y367998D02*
X27003D01*
X28669D01*
Y359668D01*
X27003Y358002D01*
X25337D01*
X23671Y359668D01*
X33668Y358002D02*
Y367998D01*
X38666D01*
X40332Y366332D01*
Y363000D01*
X38666Y361334D01*
X33668D01*
X50329Y358002D02*
X43664D01*
X50329Y364666D01*
Y366332D01*
X48663Y367998D01*
X45331D01*
X43664Y366332D01*
X658002Y494998D02*
X654669D01*
X656336D01*
Y486668D01*
X654669Y485002D01*
X653003D01*
X651337Y486668D01*
X661334Y485002D02*
Y494998D01*
X666332D01*
X667998Y493332D01*
Y490000D01*
X666332Y488334D01*
X661334D01*
X671331Y485002D02*
X674663D01*
X672997D01*
Y494998D01*
X671331Y493332D01*
X99334Y408998D02*
X96002D01*
X97668D01*
Y400668D01*
X96002Y399002D01*
X94335D01*
X92669Y400668D01*
X109331Y408998D02*
X105998Y407332D01*
X102666Y404000D01*
Y400668D01*
X104332Y399002D01*
X107664D01*
X109331Y400668D01*
Y402334D01*
X107664Y404000D01*
X102666D01*
X99334Y488998D02*
X96002D01*
X97668D01*
Y480668D01*
X96002Y479002D01*
X94335D01*
X92669Y480668D01*
X109331Y488998D02*
X102666D01*
Y484000D01*
X105998Y485666D01*
X107664D01*
X109331Y484000D01*
Y480668D01*
X107664Y479002D01*
X104332D01*
X102666Y480668D01*
X358334Y491998D02*
X355002D01*
X356668D01*
Y483668D01*
X355002Y482002D01*
X353335D01*
X351669Y483668D01*
X366665Y482002D02*
Y491998D01*
X361666Y487000D01*
X368331D01*
X468334Y490998D02*
X465002D01*
X466668D01*
Y482668D01*
X465002Y481002D01*
X463335D01*
X461669Y482668D01*
X471666Y489332D02*
X473332Y490998D01*
X476665D01*
X478331Y489332D01*
Y487666D01*
X476665Y486000D01*
X474998D01*
X476665D01*
X478331Y484334D01*
Y482668D01*
X476665Y481002D01*
X473332D01*
X471666Y482668D01*
X558334Y51998D02*
X555002D01*
X556668D01*
Y43668D01*
X555002Y42002D01*
X553335D01*
X551669Y43668D01*
X568331Y42002D02*
X561666D01*
X568331Y48666D01*
Y50332D01*
X566665Y51998D01*
X563332D01*
X561666Y50332D01*
X419000Y51998D02*
X415668D01*
X417334D01*
Y43668D01*
X415668Y42002D01*
X414002D01*
X412336Y43668D01*
X422332Y42002D02*
X425664D01*
X423998D01*
Y51998D01*
X422332Y50332D01*
D11*
X200000Y263000D02*
G03*
X200000Y263000I-1000J0D01*
G01*
D12*
X8668Y301686D02*
X13668D01*
X595808Y243000D02*
Y248000D01*
D13*
X70295Y172655D02*
X67629D01*
X68962D01*
Y165990D01*
X67629Y164657D01*
X66296D01*
X64963Y165990D01*
X72961Y172655D02*
X78292D01*
Y171322D01*
X72961Y165990D01*
Y164657D01*
M02*
