G04*
G04 #@! TF.GenerationSoftware,Altium Limited,Altium Designer,21.1.1 (26)*
G04*
G04 Layer_Physical_Order=2*
G04 Layer_Color=16711680*
%FSLAX44Y44*%
%MOMM*%
G71*
G04*
G04 #@! TF.SameCoordinates,2A0D6200-5384-45BE-AE35-18FCF66999C0*
G04*
G04*
G04 #@! TF.FilePolarity,Positive*
G04*
G01*
G75*
%ADD11C,0.5000*%
%ADD12C,0.4000*%
%ADD21R,1.9000X1.9000*%
%ADD35C,0.6000*%
%ADD64C,1.9000*%
%ADD65R,1.9000X1.9000*%
%ADD73C,0.3000*%
%ADD76C,0.8000*%
%ADD80R,2.0000X1.6000*%
%ADD81O,2.0000X1.6000*%
%ADD82R,1.6000X2.0000*%
%ADD83O,1.6000X2.0000*%
%ADD84C,4.0000*%
%ADD85C,1.7000*%
%ADD86R,1.7000X1.7000*%
G04:AMPARAMS|DCode=87|XSize=2mm|YSize=1.2mm|CornerRadius=0.36mm|HoleSize=0mm|Usage=FLASHONLY|Rotation=0.000|XOffset=0mm|YOffset=0mm|HoleType=Round|Shape=RoundedRectangle|*
%AMROUNDEDRECTD87*
21,1,2.0000,0.4800,0,0,0.0*
21,1,1.2800,1.2000,0,0,0.0*
1,1,0.7200,0.6400,-0.2400*
1,1,0.7200,-0.6400,-0.2400*
1,1,0.7200,-0.6400,0.2400*
1,1,0.7200,0.6400,0.2400*
%
%ADD87ROUNDEDRECTD87*%
%ADD88C,7.4000*%
%ADD89C,3.2000*%
%ADD90C,0.6000*%
G36*
X42985Y508000D02*
X43427Y506730D01*
X41598Y504901D01*
X40084Y502279D01*
X39300Y499354D01*
Y496326D01*
X40084Y493401D01*
X41598Y490779D01*
X43739Y488638D01*
X46361Y487124D01*
X49286Y486340D01*
X52314D01*
X55239Y487124D01*
X56730Y487985D01*
X58000Y487251D01*
Y483029D01*
X56730Y482295D01*
X55239Y483156D01*
X52314Y483940D01*
X49286D01*
X46361Y483156D01*
X43739Y481642D01*
X41598Y479501D01*
X40084Y476879D01*
X39300Y473954D01*
Y470926D01*
X40084Y468001D01*
X41598Y465379D01*
X43739Y463238D01*
X46361Y461724D01*
X49286Y460940D01*
X52314D01*
X55239Y461724D01*
X56730Y462585D01*
X58000Y461851D01*
Y452500D01*
X57459Y451194D01*
Y448806D01*
X58000Y447500D01*
X58000Y422069D01*
X56730Y421335D01*
X55239Y422196D01*
X52314Y422980D01*
X49286D01*
X46361Y422196D01*
X43739Y420682D01*
X41598Y418541D01*
X40084Y415919D01*
X39300Y412994D01*
Y409966D01*
X40084Y407041D01*
X41598Y404419D01*
X43739Y402278D01*
X46361Y400764D01*
X49286Y399980D01*
X52314D01*
X55239Y400764D01*
X56730Y401625D01*
X58000Y400891D01*
Y396669D01*
X56730Y395935D01*
X55239Y396796D01*
X52314Y397580D01*
X49286D01*
X46361Y396796D01*
X43739Y395282D01*
X41598Y393141D01*
X40084Y390519D01*
X39300Y387594D01*
Y384566D01*
X40084Y381641D01*
X41598Y379019D01*
X43739Y376878D01*
X46361Y375364D01*
X49286Y374580D01*
X52314D01*
X55239Y375364D01*
X56730Y376225D01*
X58000Y375491D01*
Y353500D01*
X39300D01*
Y330500D01*
X58000D01*
Y327189D01*
X56730Y326455D01*
X55239Y327316D01*
X52314Y328100D01*
X49286D01*
X46361Y327316D01*
X43739Y325802D01*
X41598Y323661D01*
X40084Y321039D01*
X39300Y318114D01*
Y315086D01*
X40084Y312161D01*
X41598Y309539D01*
X43739Y307398D01*
X46361Y305884D01*
X49286Y305100D01*
X52314D01*
X55239Y305884D01*
X56730Y306745D01*
X58000Y306012D01*
Y257000D01*
X51000Y250000D01*
Y180000D01*
X58000Y173000D01*
Y156000D01*
X74941Y139059D01*
Y138000D01*
X74941Y138000D01*
X75174Y136829D01*
X75837Y135837D01*
X75837Y135837D01*
X77941Y133733D01*
X77941Y111000D01*
X78174Y109829D01*
X78837Y108837D01*
X79829Y108174D01*
X81000Y107941D01*
X89893Y107941D01*
X90472Y108056D01*
X91053Y108170D01*
X91058Y108173D01*
X91064Y108174D01*
X91553Y108501D01*
X92048Y108829D01*
X92051Y108834D01*
X92056Y108837D01*
X92386Y109330D01*
X92715Y109819D01*
X92716Y109825D01*
X92719Y109829D01*
X92835Y110412D01*
X92952Y110989D01*
X93029Y132000D01*
X94000D01*
X99000Y137000D01*
X159461Y137000D01*
X160146Y135730D01*
X159441Y134029D01*
Y131642D01*
X160355Y129436D01*
X162043Y127748D01*
X164248Y126835D01*
X166635D01*
X168840Y127748D01*
X170528Y129436D01*
X171441Y131642D01*
Y134029D01*
X170737Y135730D01*
X171421Y137000D01*
X198000D01*
X203000Y132000D01*
X205765D01*
X206101Y131663D01*
X208307Y130750D01*
X210693D01*
X212899Y131663D01*
X213235Y132000D01*
X228996D01*
X230807Y131250D01*
X233193D01*
X235004Y132000D01*
X253000D01*
X300529Y84471D01*
X300000Y83194D01*
Y80807D01*
X300913Y78601D01*
X302601Y76913D01*
X304806Y76000D01*
X307194D01*
X308471Y76529D01*
X309000Y76000D01*
X357000D01*
X376000Y57000D01*
X449000D01*
X472000Y80000D01*
X613000D01*
Y39167D01*
X611730Y38214D01*
X609600Y38495D01*
X606728Y38117D01*
X604053Y37009D01*
X601755Y35245D01*
X599991Y32947D01*
X598883Y30272D01*
X598505Y27400D01*
Y23400D01*
X598883Y20528D01*
X599991Y17852D01*
X601755Y15555D01*
X604053Y13792D01*
X606728Y12683D01*
X609600Y12305D01*
X611730Y12586D01*
X613000Y11633D01*
Y3000D01*
X395059D01*
Y18717D01*
X396329Y18970D01*
X396791Y17852D01*
X398555Y15555D01*
X400853Y13792D01*
X403528Y12683D01*
X406400Y12305D01*
X409272Y12683D01*
X411948Y13792D01*
X414245Y15555D01*
X416008Y17852D01*
X417117Y20528D01*
X417495Y23400D01*
Y27400D01*
X417117Y30272D01*
X416008Y32947D01*
X414245Y35245D01*
X411948Y37009D01*
X409272Y38117D01*
X406400Y38495D01*
X403528Y38117D01*
X400853Y37009D01*
X398555Y35245D01*
X396791Y32947D01*
X396329Y31830D01*
X395059Y32083D01*
Y37000D01*
X395000Y37296D01*
Y40000D01*
X392295D01*
X392000Y40059D01*
X370000D01*
X369704Y40000D01*
X364296D01*
X364000Y40059D01*
X358267D01*
X341163Y57163D01*
X341163Y57163D01*
X340171Y57826D01*
X339000Y58059D01*
X339000Y58059D01*
X291940Y58059D01*
X286868Y63131D01*
X286383Y63799D01*
X286206Y63962D01*
X286072Y64163D01*
X285771Y64364D01*
X285506Y64609D01*
X285324Y64676D01*
X284000Y66000D01*
X240325Y66000D01*
X234499Y71827D01*
X234985Y73000D01*
X258000D01*
Y98000D01*
X233000D01*
Y74985D01*
X231827Y74499D01*
X216219Y90107D01*
X216051Y90219D01*
X215918Y90371D01*
X215559Y90548D01*
X215227Y90770D01*
X215029Y90809D01*
X214848Y90898D01*
X214449Y90925D01*
X214056Y91003D01*
X213858Y90963D01*
X213657Y90976D01*
X213278Y90848D01*
X212886Y90770D01*
X211655Y91179D01*
X210502Y93175D01*
X208175Y95503D01*
X206179Y96655D01*
X205770Y97886D01*
X205848Y98278D01*
X205977Y98657D01*
X205963Y98858D01*
X206003Y99056D01*
X205925Y99449D01*
X205899Y99848D01*
X205809Y100029D01*
X205770Y100227D01*
X205548Y100559D01*
X205371Y100918D01*
X205219Y101051D01*
X205107Y101219D01*
X198163Y108163D01*
X198163Y108163D01*
X198163Y108163D01*
X197619Y108526D01*
X197171Y108826D01*
X197171Y108826D01*
X197170Y108826D01*
X196677Y108924D01*
X196000Y109059D01*
X196000Y109059D01*
X196000Y109059D01*
X160293Y109055D01*
X159808Y108959D01*
X159317Y108895D01*
X159226Y108843D01*
X159123Y108822D01*
X158711Y108547D01*
X158282Y108301D01*
X153962Y104531D01*
X153897Y104447D01*
X153808Y104387D01*
X153535Y103977D01*
X153233Y103586D01*
X153206Y103483D01*
X153146Y103394D01*
X153051Y102910D01*
X152922Y102434D01*
X152935Y102328D01*
X152915Y102223D01*
X152940Y78957D01*
X152043Y78059D01*
X142321D01*
X142123Y78019D01*
X141921Y78033D01*
X141674Y78000D01*
X141526D01*
X141279Y78033D01*
X141077Y78019D01*
X140879Y78059D01*
X127200Y78059D01*
Y101000D01*
X124086D01*
X124013Y101015D01*
X108907Y101081D01*
X108904Y101081D01*
X108900Y101081D01*
X108488Y101000D01*
X105200D01*
Y98348D01*
X105170Y98303D01*
X105169Y98300D01*
X105168Y98297D01*
X105052Y97717D01*
X104935Y97133D01*
X104935Y97130D01*
X104935Y97126D01*
Y89898D01*
X104037Y89000D01*
X104000D01*
X104000Y87684D01*
X84908Y72059D01*
X13285Y72059D01*
X12740Y71950D01*
X12193Y71857D01*
X12156Y71834D01*
X12114Y71826D01*
X11652Y71517D01*
X11183Y71222D01*
X4606Y65000D01*
X3000Y65000D01*
X3000Y121677D01*
X4270Y122203D01*
X6338Y120135D01*
X10105Y117618D01*
X14291Y115884D01*
X18735Y115000D01*
X23265D01*
X27709Y115884D01*
X31895Y117618D01*
X35662Y120135D01*
X38865Y123338D01*
X41382Y127105D01*
X43116Y131291D01*
X44000Y135735D01*
Y140265D01*
X43116Y144709D01*
X41382Y148895D01*
X38865Y152662D01*
X35662Y155865D01*
X31895Y158382D01*
X31715Y158457D01*
Y159831D01*
X31723Y159835D01*
X33102Y160893D01*
X34160Y162271D01*
X34825Y163877D01*
X35052Y165600D01*
Y170400D01*
X34825Y172123D01*
X34160Y173728D01*
X33102Y175107D01*
X31723Y176165D01*
X30118Y176830D01*
X28395Y177057D01*
X15595D01*
X13872Y176830D01*
X12266Y176165D01*
X10888Y175107D01*
X9830Y173728D01*
X9165Y172123D01*
X8938Y170400D01*
Y165600D01*
X9165Y163877D01*
X9830Y162271D01*
X10888Y160893D01*
X11575Y160366D01*
X11384Y158912D01*
X10105Y158382D01*
X6338Y155865D01*
X4270Y153797D01*
X3000Y154323D01*
X3000Y508000D01*
X42985Y508000D01*
D02*
G37*
G36*
X682000Y478000D02*
X675000D01*
Y480000D01*
X649000D01*
Y478000D01*
X259000D01*
X248000Y489000D01*
Y499972D01*
X248368Y500452D01*
X249477Y503128D01*
X249855Y506000D01*
Y510000D01*
X249477Y512872D01*
X248368Y515547D01*
X248000Y516028D01*
Y529000D01*
X682000D01*
Y478000D01*
D02*
G37*
G36*
X91000Y465788D02*
X89827Y465302D01*
X86961Y468168D01*
X87700Y470926D01*
Y473954D01*
X86916Y476879D01*
X85402Y479501D01*
X83261Y481642D01*
X80639Y483156D01*
X77714Y483940D01*
X74686D01*
X71761Y483156D01*
X69139Y481642D01*
X66998Y479501D01*
X65484Y476879D01*
X64700Y473954D01*
Y470926D01*
X65484Y468001D01*
X66998Y465379D01*
X69139Y463238D01*
X71761Y461724D01*
X74686Y460940D01*
X77714D01*
X80472Y461679D01*
X90601Y451550D01*
Y398087D01*
X88913Y396399D01*
X88000Y394193D01*
Y391806D01*
X88913Y389601D01*
X89412Y389103D01*
Y323647D01*
X88913Y323149D01*
X88000Y320943D01*
Y318556D01*
X88913Y316351D01*
X90601Y314664D01*
X92807Y313750D01*
X95193D01*
X95912Y313270D01*
Y279397D01*
X94663Y278149D01*
X93750Y275944D01*
Y273556D01*
X94663Y271351D01*
X96351Y269663D01*
X98556Y268750D01*
X100943D01*
X103149Y269663D01*
X104837Y271351D01*
X105750Y273556D01*
Y275944D01*
X105077Y277567D01*
X105088Y277621D01*
Y371846D01*
X106358Y372489D01*
X106829Y372174D01*
X108000Y371941D01*
X132224Y371941D01*
X133061Y370986D01*
X132905Y369800D01*
X133283Y366928D01*
X134391Y364253D01*
X136155Y361955D01*
X138453Y360191D01*
X141128Y359083D01*
X144000Y358705D01*
X148000D01*
X150872Y359083D01*
X153547Y360191D01*
X155845Y361955D01*
X157608Y364253D01*
X158717Y366928D01*
X159095Y369800D01*
X158939Y370986D01*
X159776Y371941D01*
X179000Y371941D01*
X180170Y372174D01*
X181163Y372837D01*
X181826Y373829D01*
X182059Y375000D01*
X182059Y412998D01*
X182075Y441941D01*
X201941D01*
Y419734D01*
X202174Y418564D01*
X202837Y417572D01*
X203000Y417463D01*
X203000Y408076D01*
X216939Y408076D01*
X218101Y406913D01*
X220306Y406000D01*
X222694D01*
X224899Y406913D01*
X225397Y407412D01*
X579812D01*
X580807Y407000D01*
X583194D01*
X584670Y407612D01*
X585940Y406795D01*
Y335066D01*
X552257Y301384D01*
X551135Y299922D01*
X550430Y298219D01*
X550190Y296392D01*
Y217023D01*
X550430Y215196D01*
X550690Y214568D01*
X550496Y214279D01*
X549689Y213666D01*
X547322Y214647D01*
X544450Y215025D01*
X541578Y214647D01*
X538903Y213538D01*
X536605Y211775D01*
X534841Y209478D01*
X533733Y206802D01*
X533355Y203930D01*
Y199930D01*
X533733Y197058D01*
X534841Y194382D01*
X536605Y192085D01*
X538903Y190322D01*
X541578Y189213D01*
X544450Y188835D01*
X547322Y189213D01*
X549997Y190322D01*
X551808Y191711D01*
X553389Y191632D01*
X553645Y191248D01*
X577366Y167527D01*
X578163Y165601D01*
X579851Y163913D01*
X582057Y163000D01*
X584444D01*
X586649Y163913D01*
X588336Y165601D01*
X589250Y167806D01*
Y170194D01*
X588336Y172399D01*
X586649Y174086D01*
X584444Y175000D01*
X584312D01*
X571419Y187893D01*
X571827Y189095D01*
X572722Y189213D01*
X575397Y190322D01*
X577695Y192085D01*
X579459Y194382D01*
X580567Y197058D01*
X580945Y199930D01*
Y203930D01*
X580567Y206802D01*
X579459Y209478D01*
X577695Y211775D01*
X575397Y213538D01*
X572722Y214647D01*
X569850Y215025D01*
X566978Y214647D01*
X564852Y213766D01*
X563880Y214738D01*
X564070Y215196D01*
X564310Y217023D01*
Y293468D01*
X597993Y327150D01*
X599114Y328612D01*
X599142Y328678D01*
X600412Y328425D01*
Y324000D01*
X600761Y322244D01*
X601756Y320756D01*
X614412Y308099D01*
Y248000D01*
X614761Y246244D01*
X615756Y244756D01*
X628286Y232225D01*
Y214930D01*
X609650D01*
Y188930D01*
X628286D01*
Y167255D01*
X599081Y138049D01*
X598122Y138447D01*
X595250Y138825D01*
X592378Y138447D01*
X589702Y137338D01*
X587405Y135575D01*
X585642Y133278D01*
X584533Y130602D01*
X584155Y127730D01*
Y123730D01*
X584533Y120858D01*
X585642Y118182D01*
X587405Y115885D01*
X589702Y114122D01*
X592378Y113013D01*
X595250Y112635D01*
X598122Y113013D01*
X600798Y114122D01*
X601942Y115000D01*
X613958D01*
X615103Y114122D01*
X617778Y113013D01*
X620650Y112635D01*
X623522Y113013D01*
X626198Y114122D01*
X628495Y115885D01*
X630258Y118182D01*
X631367Y120858D01*
X631745Y123730D01*
Y127730D01*
X631367Y130602D01*
X630258Y133278D01*
X628495Y135575D01*
X626198Y137338D01*
X625238Y137736D01*
Y140750D01*
X645102Y160614D01*
X645523Y161243D01*
X645861Y161313D01*
X646992Y161156D01*
X647756Y160013D01*
X649513Y158256D01*
X651002Y157261D01*
X652757Y156912D01*
X659103D01*
X659601Y156413D01*
X661806Y155500D01*
X664193D01*
X666399Y156413D01*
X668086Y158101D01*
X669000Y160306D01*
Y162694D01*
X668086Y164899D01*
X666399Y166586D01*
X664193Y167500D01*
X661806D01*
X659601Y166586D01*
X659103Y166088D01*
X655588D01*
Y242000D01*
X655239Y243756D01*
X654244Y245245D01*
X650662Y248827D01*
X651148Y250000D01*
X670000D01*
Y275000D01*
X645588D01*
Y312008D01*
X645239Y313764D01*
X644244Y315252D01*
X624488Y335009D01*
Y400000D01*
X682303D01*
X682303Y307076D01*
Y5076D01*
X683129Y4249D01*
X682643Y3076D01*
X616059D01*
Y11633D01*
X616016Y11848D01*
X616028Y12067D01*
X615901Y12428D01*
X615826Y12804D01*
X615704Y12986D01*
X615632Y13192D01*
X616027Y14467D01*
X617445Y15555D01*
X619208Y17852D01*
X620317Y20528D01*
X620695Y23400D01*
Y27400D01*
X620317Y30272D01*
X619208Y32947D01*
X617445Y35245D01*
X616027Y36333D01*
X615632Y37608D01*
X615704Y37814D01*
X615826Y37996D01*
X615901Y38372D01*
X616028Y38733D01*
X616016Y38952D01*
X616059Y39167D01*
Y80000D01*
X615826Y81171D01*
X615163Y82163D01*
X614170Y82826D01*
X613000Y83059D01*
X472000D01*
X470829Y82826D01*
X469837Y82163D01*
X469837Y82163D01*
X447733Y60059D01*
X377267D01*
X359163Y78163D01*
X358171Y78826D01*
X357000Y79059D01*
X357000Y79059D01*
X310085D01*
X309641Y79355D01*
X308471Y79588D01*
X307613Y79417D01*
X307300Y79355D01*
X306585Y79059D01*
X305415D01*
X304334Y79507D01*
X303507Y80334D01*
X303059Y81415D01*
Y82585D01*
X303355Y83300D01*
X303588Y84471D01*
X303355Y85641D01*
X303023Y86138D01*
X302692Y86634D01*
X255163Y134163D01*
X254170Y134826D01*
X253000Y135059D01*
X253000Y135059D01*
X235004D01*
X233834Y134826D01*
X232585Y134309D01*
X231415D01*
X230166Y134826D01*
X228996Y135059D01*
X213235D01*
X212065Y134826D01*
X211288Y134307D01*
X210085Y133809D01*
X208915D01*
X207712Y134307D01*
X206935Y134826D01*
X205765Y135059D01*
X205765Y135059D01*
X204267D01*
X200303Y139023D01*
Y139075D01*
X198303Y141075D01*
X173303D01*
Y140059D01*
X171421D01*
X170985Y139972D01*
X170543Y139930D01*
X170404Y139857D01*
X170250Y139826D01*
X169881Y139579D01*
X169489Y139371D01*
X169389Y139250D01*
X169258Y139163D01*
X169011Y138793D01*
X168728Y138451D01*
X168044Y137181D01*
X167998Y137031D01*
X167910Y136901D01*
X167824Y136465D01*
X167694Y136040D01*
X167708Y135884D01*
X167678Y135730D01*
X167764Y135294D01*
X167806Y134852D01*
X167880Y134713D01*
X167910Y134559D01*
X168382Y133420D01*
Y132250D01*
X167935Y131169D01*
X167107Y130342D01*
X166026Y129894D01*
X164856D01*
X163775Y130342D01*
X162948Y131169D01*
X162500Y132250D01*
Y133420D01*
X162972Y134559D01*
X163003Y134713D01*
X163076Y134852D01*
X163118Y135294D01*
X163205Y135730D01*
X163174Y135884D01*
X163189Y136040D01*
X163059Y136465D01*
X162972Y136901D01*
X162885Y137031D01*
X162839Y137181D01*
X162154Y138451D01*
X161871Y138793D01*
X161624Y139163D01*
X161494Y139250D01*
X161394Y139371D01*
X161001Y139579D01*
X160632Y139826D01*
X160478Y139857D01*
X160339Y139930D01*
X159897Y139972D01*
X159461Y140059D01*
X155303D01*
Y141075D01*
X95303D01*
Y163076D01*
X81303Y177076D01*
Y213076D01*
X77303Y217076D01*
Y234076D01*
X58352Y253026D01*
X60163Y254837D01*
X60826Y255830D01*
X61059Y257000D01*
X61059Y257000D01*
Y306012D01*
X60981Y306404D01*
X60955Y306803D01*
X60865Y306984D01*
X60826Y307182D01*
X60604Y307515D01*
X60427Y307874D01*
X60275Y308006D01*
X60163Y308174D01*
X60004Y309528D01*
X60139Y309775D01*
X61516Y312161D01*
X62300Y315086D01*
Y318114D01*
X61516Y321039D01*
X60002Y323661D01*
X60163Y325026D01*
X60275Y325194D01*
X60427Y325327D01*
X60604Y325686D01*
X60826Y326018D01*
X60865Y326216D01*
X60954Y326397D01*
X60981Y326796D01*
X61059Y327189D01*
Y330500D01*
X62300D01*
Y353500D01*
X61059D01*
Y375491D01*
X60981Y375884D01*
X60954Y376283D01*
X60865Y376464D01*
X60826Y376662D01*
X60604Y376995D01*
X60427Y377353D01*
X60275Y377486D01*
X60163Y377654D01*
X60002Y379019D01*
X61516Y381641D01*
X62300Y384566D01*
Y387594D01*
X61516Y390519D01*
X60139Y392905D01*
X60004Y393152D01*
X60163Y394506D01*
X60275Y394674D01*
X60427Y394807D01*
X60604Y395165D01*
X60826Y395498D01*
X60865Y395696D01*
X60954Y395877D01*
X60981Y396276D01*
X61059Y396669D01*
Y400891D01*
X60981Y401284D01*
X60954Y401683D01*
X60865Y401864D01*
X60826Y402062D01*
X60604Y402395D01*
X60427Y402753D01*
X60275Y402887D01*
X60163Y403054D01*
X60004Y404408D01*
X60139Y404655D01*
X61516Y407041D01*
X62300Y409966D01*
Y412994D01*
X61516Y415919D01*
X60139Y418305D01*
X60004Y418552D01*
X60163Y419906D01*
X60275Y420074D01*
X60427Y420206D01*
X60604Y420565D01*
X60826Y420898D01*
X60865Y421096D01*
X60954Y421277D01*
X60981Y421676D01*
X61059Y422069D01*
X61059Y447500D01*
X60826Y448671D01*
X60518Y449415D01*
Y450585D01*
X60826Y451329D01*
X61059Y452500D01*
Y461851D01*
X60981Y462244D01*
X60954Y462643D01*
X60865Y462824D01*
X60826Y463022D01*
X60604Y463355D01*
X60427Y463713D01*
X60275Y463847D01*
X60163Y464014D01*
X60004Y465368D01*
X60139Y465615D01*
X61516Y468001D01*
X62300Y470926D01*
Y473954D01*
X61516Y476879D01*
X60139Y479265D01*
X60004Y479512D01*
X60163Y480866D01*
X60275Y481034D01*
X60427Y481166D01*
X60604Y481525D01*
X60826Y481858D01*
X60865Y482056D01*
X60954Y482237D01*
X60981Y482636D01*
X61059Y483029D01*
Y487251D01*
X60981Y487644D01*
X60954Y488043D01*
X60865Y488224D01*
X60826Y488422D01*
X60604Y488755D01*
X60427Y489114D01*
X60275Y489246D01*
X60163Y489414D01*
X60004Y490768D01*
X60139Y491015D01*
X61516Y493401D01*
X62300Y496326D01*
Y499354D01*
X61516Y502279D01*
X60002Y504901D01*
X57861Y507042D01*
X57303Y507365D01*
Y512076D01*
X3303D01*
Y530075D01*
X91000D01*
Y465788D01*
D02*
G37*
G36*
X239794Y438756D02*
X241282Y437761D01*
X243038Y437412D01*
X317102D01*
X318000Y436514D01*
X318000Y419734D01*
X205000D01*
Y445000D01*
X179018D01*
X179000Y413000D01*
X179000Y375000D01*
X157752Y375000D01*
X157608Y375347D01*
X155845Y377645D01*
X153547Y379408D01*
X150872Y380517D01*
X148000Y380895D01*
X144000D01*
X141128Y380517D01*
X138453Y379408D01*
X136155Y377645D01*
X134391Y375347D01*
X134248Y375000D01*
X108000Y375000D01*
X108000Y434000D01*
X112000Y438000D01*
X133000D01*
Y435000D01*
X159000D01*
Y438000D01*
X159000D01*
X159000Y450511D01*
X167705Y459216D01*
X219333D01*
X239794Y438756D01*
D02*
G37*
G36*
X69000Y220000D02*
X77000Y212000D01*
Y176000D01*
X90084Y162915D01*
X89893Y111000D01*
X81000Y111000D01*
X81000Y135000D01*
X78000Y138000D01*
Y145000D01*
X62000Y161000D01*
Y174000D01*
X55000Y181000D01*
Y236000D01*
X69000D01*
Y220000D01*
D02*
G37*
G36*
X202944Y99056D02*
X202309Y97956D01*
X202146Y98000D01*
X198854D01*
X195675Y97148D01*
X192825Y95503D01*
X190497Y93175D01*
X188852Y90325D01*
X188000Y87146D01*
Y83854D01*
X188852Y80675D01*
X190497Y77825D01*
X192825Y75497D01*
X195675Y73852D01*
X198854Y73000D01*
X202146D01*
X205325Y73852D01*
X208175Y75497D01*
X210502Y77825D01*
X212148Y80675D01*
X213000Y83854D01*
Y87146D01*
X212956Y87309D01*
X214056Y87944D01*
X240000Y62000D01*
X283909Y62000D01*
X289000Y55000D01*
X339000Y55000D01*
X357000Y37000D01*
X364000D01*
Y15000D01*
X344000D01*
X340658Y19902D01*
X340917Y20528D01*
X341295Y23400D01*
Y27400D01*
X340917Y30272D01*
X339809Y32947D01*
X338045Y35245D01*
X335747Y37009D01*
X333072Y38117D01*
X330200Y38495D01*
X327328Y38117D01*
X324652Y37009D01*
X322355Y35245D01*
X321399Y34000D01*
X313601Y34000D01*
X312645Y35245D01*
X310347Y37009D01*
X307672Y38117D01*
X304800Y38495D01*
X301928Y38117D01*
X299252Y37009D01*
X296955Y35245D01*
X295999Y34000D01*
X290400Y34000D01*
Y38400D01*
X268400D01*
Y34000D01*
X263326Y34000D01*
X259163Y38163D01*
X259163Y38163D01*
X258171Y38826D01*
X257000Y39059D01*
X257000Y39059D01*
X222267Y39059D01*
X221163Y40163D01*
X221163Y40163D01*
X184163Y77163D01*
X183171Y77826D01*
X182000Y78059D01*
X182000Y78059D01*
X167721D01*
X167523Y78019D01*
X167322Y78033D01*
X167075Y78000D01*
X166925D01*
X166678Y78033D01*
X166477Y78019D01*
X166279Y78059D01*
X156000D01*
X155974Y102227D01*
X160294Y105997D01*
X196000Y106000D01*
X202944Y99056D01*
D02*
G37*
G36*
X124000Y97956D02*
X124000Y75000D01*
X140879Y75000D01*
X141600Y74905D01*
X142321Y75000D01*
X166279D01*
X167000Y74905D01*
X167721Y75000D01*
X182000D01*
X219000Y38000D01*
X221000Y36000D01*
X257000Y36000D01*
X263000Y30000D01*
X263000Y11000D01*
X370000D01*
Y37000D01*
X392000D01*
Y3000D01*
X174267D01*
X173690Y4132D01*
X173911Y4435D01*
X176770Y10045D01*
X178715Y16033D01*
X179700Y22252D01*
Y28548D01*
X178715Y34767D01*
X176770Y40755D01*
X173911Y46365D01*
X170210Y51458D01*
X165758Y55910D01*
X160665Y59611D01*
X155055Y62470D01*
X149067Y64415D01*
X142848Y65400D01*
X136552D01*
X130333Y64415D01*
X124345Y62470D01*
X118735Y59611D01*
X113642Y55910D01*
X109190Y51458D01*
X105489Y46365D01*
X102631Y40755D01*
X100685Y34767D01*
X99700Y28548D01*
Y22252D01*
X100685Y16033D01*
X102631Y10045D01*
X105489Y4435D01*
X105710Y4132D01*
X105133Y3000D01*
X3898D01*
X3000Y3898D01*
X3016Y59284D01*
X13285Y69000D01*
X86000Y69000D01*
X107993Y87000D01*
Y97126D01*
X108894Y98022D01*
X124000Y97956D01*
D02*
G37*
%LPC*%
G36*
X36900Y483940D02*
X13900D01*
Y460940D01*
X36900D01*
Y483940D01*
D02*
G37*
G36*
Y397580D02*
X13900D01*
Y374580D01*
X36900D01*
Y397580D01*
D02*
G37*
G36*
X26914Y353500D02*
X23886D01*
X20961Y352716D01*
X18339Y351202D01*
X16198Y349061D01*
X14684Y346439D01*
X13900Y343514D01*
Y340486D01*
X14684Y337561D01*
X16198Y334939D01*
X18339Y332798D01*
X20961Y331284D01*
X23886Y330500D01*
X26914D01*
X29839Y331284D01*
X32461Y332798D01*
X34602Y334939D01*
X36116Y337561D01*
X36900Y340486D01*
Y343514D01*
X36116Y346439D01*
X34602Y349061D01*
X32461Y351202D01*
X29839Y352716D01*
X26914Y353500D01*
D02*
G37*
G36*
Y328100D02*
X23886D01*
X20961Y327316D01*
X18339Y325802D01*
X16198Y323661D01*
X14684Y321039D01*
X13900Y318114D01*
Y315086D01*
X14684Y312161D01*
X16198Y309539D01*
X18339Y307398D01*
X20961Y305884D01*
X23886Y305100D01*
X26914D01*
X29839Y305884D01*
X32461Y307398D01*
X34602Y309539D01*
X36116Y312161D01*
X36900Y315086D01*
Y318114D01*
X36116Y321039D01*
X34602Y323661D01*
X32461Y325802D01*
X29839Y327316D01*
X26914Y328100D01*
D02*
G37*
G36*
X28395Y243057D02*
X15595D01*
X13872Y242830D01*
X12266Y242165D01*
X10888Y241107D01*
X9830Y239729D01*
X9165Y238123D01*
X8938Y236400D01*
Y231600D01*
X9165Y229877D01*
X9830Y228272D01*
X10888Y226893D01*
X12266Y225835D01*
X13872Y225170D01*
X15595Y224943D01*
X28395D01*
X30118Y225170D01*
X31723Y225835D01*
X33102Y226893D01*
X34160Y228272D01*
X34825Y229877D01*
X35052Y231600D01*
Y236400D01*
X34825Y238123D01*
X34160Y239729D01*
X33102Y241107D01*
X31723Y242165D01*
X30118Y242830D01*
X28395Y243057D01*
D02*
G37*
G36*
X519000Y38400D02*
X497000D01*
Y12400D01*
X519000D01*
Y38400D01*
D02*
G37*
G36*
X584200Y38495D02*
X581328Y38117D01*
X578652Y37009D01*
X576355Y35245D01*
X574591Y32947D01*
X573483Y30272D01*
X573105Y27400D01*
Y23400D01*
X573483Y20528D01*
X574591Y17852D01*
X576355Y15555D01*
X578652Y13792D01*
X581328Y12683D01*
X584200Y12305D01*
X587072Y12683D01*
X589748Y13792D01*
X592045Y15555D01*
X593809Y17852D01*
X594917Y20528D01*
X595295Y23400D01*
Y27400D01*
X594917Y30272D01*
X593809Y32947D01*
X592045Y35245D01*
X589748Y37009D01*
X587072Y38117D01*
X584200Y38495D01*
D02*
G37*
G36*
X558800D02*
X555928Y38117D01*
X553252Y37009D01*
X550955Y35245D01*
X549192Y32947D01*
X548083Y30272D01*
X547705Y27400D01*
Y23400D01*
X548083Y20528D01*
X549192Y17852D01*
X550955Y15555D01*
X553252Y13792D01*
X555928Y12683D01*
X558800Y12305D01*
X561672Y12683D01*
X564347Y13792D01*
X566645Y15555D01*
X568409Y17852D01*
X569517Y20528D01*
X569895Y23400D01*
Y27400D01*
X569517Y30272D01*
X568409Y32947D01*
X566645Y35245D01*
X564347Y37009D01*
X561672Y38117D01*
X558800Y38495D01*
D02*
G37*
G36*
X533400D02*
X530528Y38117D01*
X527853Y37009D01*
X525555Y35245D01*
X523792Y32947D01*
X522683Y30272D01*
X522305Y27400D01*
Y23400D01*
X522683Y20528D01*
X523792Y17852D01*
X525555Y15555D01*
X527853Y13792D01*
X530528Y12683D01*
X533400Y12305D01*
X536272Y12683D01*
X538947Y13792D01*
X541245Y15555D01*
X543008Y17852D01*
X544117Y20528D01*
X544495Y23400D01*
Y27400D01*
X544117Y30272D01*
X543008Y32947D01*
X541245Y35245D01*
X538947Y37009D01*
X536272Y38117D01*
X533400Y38495D01*
D02*
G37*
G36*
X457200D02*
X454328Y38117D01*
X451652Y37009D01*
X449355Y35245D01*
X447592Y32947D01*
X446483Y30272D01*
X446105Y27400D01*
Y23400D01*
X446483Y20528D01*
X447592Y17852D01*
X449355Y15555D01*
X451652Y13792D01*
X454328Y12683D01*
X457200Y12305D01*
X460072Y12683D01*
X462747Y13792D01*
X465045Y15555D01*
X466809Y17852D01*
X467917Y20528D01*
X468295Y23400D01*
Y27400D01*
X467917Y30272D01*
X466809Y32947D01*
X465045Y35245D01*
X462747Y37009D01*
X460072Y38117D01*
X457200Y38495D01*
D02*
G37*
G36*
X431800D02*
X428928Y38117D01*
X426253Y37009D01*
X423955Y35245D01*
X422192Y32947D01*
X421083Y30272D01*
X420705Y27400D01*
Y23400D01*
X421083Y20528D01*
X422192Y17852D01*
X423955Y15555D01*
X426253Y13792D01*
X428928Y12683D01*
X431800Y12305D01*
X434672Y12683D01*
X437347Y13792D01*
X439645Y15555D01*
X441409Y17852D01*
X442517Y20528D01*
X442895Y23400D01*
Y27400D01*
X442517Y30272D01*
X441409Y32947D01*
X439645Y35245D01*
X437347Y37009D01*
X434672Y38117D01*
X431800Y38495D01*
D02*
G37*
G36*
X646000Y521000D02*
X624000D01*
Y495000D01*
X646000D01*
Y521000D01*
D02*
G37*
G36*
X427560D02*
X405560D01*
Y495000D01*
X427560D01*
Y521000D01*
D02*
G37*
G36*
X609600Y521095D02*
X606728Y520717D01*
X604053Y519608D01*
X601755Y517845D01*
X599991Y515547D01*
X598883Y512872D01*
X598505Y510000D01*
Y506000D01*
X598883Y503128D01*
X599991Y500452D01*
X601755Y498155D01*
X604053Y496391D01*
X606728Y495283D01*
X609600Y494905D01*
X612472Y495283D01*
X615148Y496391D01*
X617445Y498155D01*
X619208Y500452D01*
X620317Y503128D01*
X620695Y506000D01*
Y510000D01*
X620317Y512872D01*
X619208Y515547D01*
X617445Y517845D01*
X615148Y519608D01*
X612472Y520717D01*
X609600Y521095D01*
D02*
G37*
G36*
X584200D02*
X581328Y520717D01*
X578652Y519608D01*
X576355Y517845D01*
X574591Y515547D01*
X573483Y512872D01*
X573105Y510000D01*
Y506000D01*
X573483Y503128D01*
X574591Y500452D01*
X576355Y498155D01*
X578652Y496391D01*
X581328Y495283D01*
X584200Y494905D01*
X587072Y495283D01*
X589748Y496391D01*
X592045Y498155D01*
X593809Y500452D01*
X594917Y503128D01*
X595295Y506000D01*
Y510000D01*
X594917Y512872D01*
X593809Y515547D01*
X592045Y517845D01*
X589748Y519608D01*
X587072Y520717D01*
X584200Y521095D01*
D02*
G37*
G36*
X558800D02*
X555928Y520717D01*
X553252Y519608D01*
X550955Y517845D01*
X549192Y515547D01*
X548083Y512872D01*
X547705Y510000D01*
Y506000D01*
X548083Y503128D01*
X549192Y500452D01*
X550955Y498155D01*
X553252Y496391D01*
X555928Y495283D01*
X558800Y494905D01*
X561672Y495283D01*
X564347Y496391D01*
X566645Y498155D01*
X568409Y500452D01*
X569517Y503128D01*
X569895Y506000D01*
Y510000D01*
X569517Y512872D01*
X568409Y515547D01*
X566645Y517845D01*
X564347Y519608D01*
X561672Y520717D01*
X558800Y521095D01*
D02*
G37*
G36*
X533400D02*
X530528Y520717D01*
X527853Y519608D01*
X525555Y517845D01*
X523792Y515547D01*
X522683Y512872D01*
X522305Y510000D01*
Y506000D01*
X522683Y503128D01*
X523792Y500452D01*
X525555Y498155D01*
X527853Y496391D01*
X530528Y495283D01*
X533400Y494905D01*
X536272Y495283D01*
X538947Y496391D01*
X541245Y498155D01*
X543008Y500452D01*
X544117Y503128D01*
X544495Y506000D01*
Y510000D01*
X544117Y512872D01*
X543008Y515547D01*
X541245Y517845D01*
X538947Y519608D01*
X536272Y520717D01*
X533400Y521095D01*
D02*
G37*
G36*
X508000D02*
X505128Y520717D01*
X502453Y519608D01*
X500155Y517845D01*
X498391Y515547D01*
X497283Y512872D01*
X496905Y510000D01*
Y506000D01*
X497283Y503128D01*
X498391Y500452D01*
X500155Y498155D01*
X502453Y496391D01*
X505128Y495283D01*
X508000Y494905D01*
X510872Y495283D01*
X513548Y496391D01*
X515845Y498155D01*
X517608Y500452D01*
X518717Y503128D01*
X519095Y506000D01*
Y510000D01*
X518717Y512872D01*
X517608Y515547D01*
X515845Y517845D01*
X513548Y519608D01*
X510872Y520717D01*
X508000Y521095D01*
D02*
G37*
G36*
X482600D02*
X479728Y520717D01*
X477052Y519608D01*
X474755Y517845D01*
X472991Y515547D01*
X471883Y512872D01*
X471505Y510000D01*
Y506000D01*
X471883Y503128D01*
X472991Y500452D01*
X474755Y498155D01*
X477052Y496391D01*
X479728Y495283D01*
X482600Y494905D01*
X485472Y495283D01*
X488148Y496391D01*
X490445Y498155D01*
X492209Y500452D01*
X493317Y503128D01*
X493695Y506000D01*
Y510000D01*
X493317Y512872D01*
X492209Y515547D01*
X490445Y517845D01*
X488148Y519608D01*
X485472Y520717D01*
X482600Y521095D01*
D02*
G37*
G36*
X457200D02*
X454328Y520717D01*
X451652Y519608D01*
X449355Y517845D01*
X447592Y515547D01*
X446483Y512872D01*
X446105Y510000D01*
Y506000D01*
X446483Y503128D01*
X447592Y500452D01*
X449355Y498155D01*
X451652Y496391D01*
X454328Y495283D01*
X457200Y494905D01*
X460072Y495283D01*
X462747Y496391D01*
X465045Y498155D01*
X466809Y500452D01*
X467917Y503128D01*
X468295Y506000D01*
Y510000D01*
X467917Y512872D01*
X466809Y515547D01*
X465045Y517845D01*
X462747Y519608D01*
X460072Y520717D01*
X457200Y521095D01*
D02*
G37*
G36*
X391160D02*
X388288Y520717D01*
X385612Y519608D01*
X383315Y517845D01*
X381552Y515547D01*
X380443Y512872D01*
X380065Y510000D01*
Y506000D01*
X380443Y503128D01*
X381552Y500452D01*
X383315Y498155D01*
X385612Y496391D01*
X388288Y495283D01*
X391160Y494905D01*
X394032Y495283D01*
X396707Y496391D01*
X399005Y498155D01*
X400769Y500452D01*
X401877Y503128D01*
X402255Y506000D01*
Y510000D01*
X401877Y512872D01*
X400769Y515547D01*
X399005Y517845D01*
X396707Y519608D01*
X394032Y520717D01*
X391160Y521095D01*
D02*
G37*
G36*
X365760D02*
X362888Y520717D01*
X360213Y519608D01*
X357915Y517845D01*
X356152Y515547D01*
X355043Y512872D01*
X354665Y510000D01*
Y506000D01*
X355043Y503128D01*
X356152Y500452D01*
X357915Y498155D01*
X360213Y496391D01*
X362888Y495283D01*
X365760Y494905D01*
X368632Y495283D01*
X371307Y496391D01*
X373605Y498155D01*
X375368Y500452D01*
X376477Y503128D01*
X376855Y506000D01*
Y510000D01*
X376477Y512872D01*
X375368Y515547D01*
X373605Y517845D01*
X371307Y519608D01*
X368632Y520717D01*
X365760Y521095D01*
D02*
G37*
G36*
X340360D02*
X337488Y520717D01*
X334813Y519608D01*
X332515Y517845D01*
X330751Y515547D01*
X329643Y512872D01*
X329265Y510000D01*
Y506000D01*
X329643Y503128D01*
X330751Y500452D01*
X332515Y498155D01*
X334813Y496391D01*
X337488Y495283D01*
X340360Y494905D01*
X343232Y495283D01*
X345908Y496391D01*
X348205Y498155D01*
X349968Y500452D01*
X351077Y503128D01*
X351455Y506000D01*
Y510000D01*
X351077Y512872D01*
X349968Y515547D01*
X348205Y517845D01*
X345908Y519608D01*
X343232Y520717D01*
X340360Y521095D01*
D02*
G37*
G36*
X314960D02*
X312088Y520717D01*
X309412Y519608D01*
X307115Y517845D01*
X305352Y515547D01*
X304243Y512872D01*
X303865Y510000D01*
Y506000D01*
X304243Y503128D01*
X304641Y502169D01*
X295310Y492838D01*
X286147D01*
X285649Y493337D01*
X283444Y494250D01*
X281056D01*
X278851Y493337D01*
X277164Y491649D01*
X276250Y489444D01*
Y487057D01*
X277164Y484851D01*
X278851Y483163D01*
X281056Y482250D01*
X283444D01*
X285649Y483163D01*
X286147Y483662D01*
X297210D01*
X298966Y484011D01*
X300454Y485006D01*
X311129Y495681D01*
X312088Y495283D01*
X314960Y494905D01*
X317832Y495283D01*
X320508Y496391D01*
X322805Y498155D01*
X324568Y500452D01*
X325677Y503128D01*
X326055Y506000D01*
Y510000D01*
X325677Y512872D01*
X324568Y515547D01*
X322805Y517845D01*
X320508Y519608D01*
X317832Y520717D01*
X314960Y521095D01*
D02*
G37*
G36*
X289560D02*
X286688Y520717D01*
X284013Y519608D01*
X281715Y517845D01*
X279951Y515547D01*
X278843Y512872D01*
X278465Y510000D01*
Y506000D01*
X278843Y503128D01*
X279951Y500452D01*
X281715Y498155D01*
X284013Y496391D01*
X286688Y495283D01*
X289560Y494905D01*
X292432Y495283D01*
X295107Y496391D01*
X297405Y498155D01*
X299168Y500452D01*
X300277Y503128D01*
X300655Y506000D01*
Y510000D01*
X300277Y512872D01*
X299168Y515547D01*
X297405Y517845D01*
X295107Y519608D01*
X292432Y520717D01*
X289560Y521095D01*
D02*
G37*
G36*
X77714Y397580D02*
X74686D01*
X71761Y396796D01*
X69139Y395282D01*
X66998Y393141D01*
X65484Y390519D01*
X64700Y387594D01*
Y384566D01*
X65484Y381641D01*
X66998Y379019D01*
X69139Y376878D01*
X71761Y375364D01*
X74686Y374580D01*
X77714D01*
X80639Y375364D01*
X83261Y376878D01*
X85402Y379019D01*
X86916Y381641D01*
X87700Y384566D01*
Y387594D01*
X86916Y390519D01*
X85402Y393141D01*
X83261Y395282D01*
X80639Y396796D01*
X77714Y397580D01*
D02*
G37*
G36*
X594146Y275000D02*
X590854D01*
X587675Y274148D01*
X584825Y272502D01*
X582497Y270175D01*
X580852Y267325D01*
X580000Y264146D01*
Y260854D01*
X580852Y257675D01*
X582497Y254825D01*
X584825Y252498D01*
X587675Y250852D01*
X590854Y250000D01*
X594146D01*
X597325Y250852D01*
X600175Y252498D01*
X602503Y254825D01*
X604148Y257675D01*
X605000Y260854D01*
Y264146D01*
X604148Y267325D01*
X602503Y270175D01*
X600175Y272502D01*
X597325Y274148D01*
X594146Y275000D01*
D02*
G37*
G36*
X325551Y264572D02*
X323164D01*
X320959Y263659D01*
X319271Y261971D01*
X318358Y259765D01*
Y257379D01*
X319271Y255173D01*
X319770Y254675D01*
Y216479D01*
X319963Y215507D01*
X318850Y214594D01*
X318722Y214647D01*
X315850Y215025D01*
X312978Y214647D01*
X310303Y213538D01*
X308858Y212430D01*
X307588Y213057D01*
Y216603D01*
X308337Y217351D01*
X309250Y219557D01*
Y221943D01*
X308337Y224149D01*
X306649Y225837D01*
X304443Y226750D01*
X302057D01*
X299851Y225837D01*
X298163Y224149D01*
X297250Y221943D01*
Y219557D01*
X298163Y217351D01*
X298412Y217103D01*
Y213287D01*
X297142Y212660D01*
X295998Y213538D01*
X293322Y214647D01*
X290450Y215025D01*
X287578Y214647D01*
X284902Y213538D01*
X282605Y211775D01*
X280842Y209478D01*
X279733Y206802D01*
X279696Y206518D01*
X264430D01*
X262674Y206169D01*
X261186Y205174D01*
X244011Y188000D01*
X243806D01*
X241601Y187087D01*
X239913Y185399D01*
X239000Y183193D01*
Y180807D01*
X239913Y178601D01*
X241601Y176913D01*
X243806Y176000D01*
X246194D01*
X248399Y176913D01*
X250086Y178601D01*
X251000Y180807D01*
Y182011D01*
X266331Y197342D01*
X279696D01*
X279733Y197058D01*
X280842Y194382D01*
X282605Y192085D01*
X284902Y190322D01*
X287578Y189213D01*
X290450Y188835D01*
X293322Y189213D01*
X295998Y190322D01*
X297142Y191200D01*
X298412Y190573D01*
Y178397D01*
X297663Y177649D01*
X296750Y175443D01*
Y173057D01*
X297663Y170851D01*
X299351Y169163D01*
X301556Y168250D01*
X303944D01*
X306149Y169163D01*
X307836Y170851D01*
X308750Y173057D01*
Y175443D01*
X307836Y177649D01*
X307588Y177897D01*
Y190804D01*
X308858Y191430D01*
X310303Y190322D01*
X312978Y189213D01*
X315850Y188835D01*
X318722Y189213D01*
X321398Y190322D01*
X322642Y191276D01*
X323912Y190650D01*
Y180147D01*
X323414Y179649D01*
X322500Y177444D01*
Y175056D01*
X323414Y172851D01*
X325101Y171163D01*
X327307Y170250D01*
X329693D01*
X331899Y171163D01*
X333587Y172851D01*
X334500Y175056D01*
Y177444D01*
X333587Y179649D01*
X333088Y180147D01*
Y190727D01*
X334358Y191353D01*
X335703Y190322D01*
X338378Y189213D01*
X341250Y188835D01*
X344122Y189213D01*
X346797Y190322D01*
X349095Y192085D01*
X350858Y194382D01*
X351967Y197058D01*
X352345Y199930D01*
Y203930D01*
X351967Y206802D01*
X350858Y209478D01*
X349095Y211775D01*
X346797Y213538D01*
X344122Y214647D01*
X341250Y215025D01*
X338378Y214647D01*
X335703Y213538D01*
X334311Y212471D01*
X332951Y213028D01*
X332739Y214093D01*
X331744Y215581D01*
X328946Y218379D01*
Y254675D01*
X329445Y255173D01*
X330358Y257379D01*
Y259765D01*
X329445Y261971D01*
X327757Y263659D01*
X325551Y264572D01*
D02*
G37*
G36*
X119693Y221000D02*
X117306D01*
X115101Y220087D01*
X113413Y218399D01*
X112500Y216194D01*
Y213806D01*
X113413Y211601D01*
X115101Y209913D01*
X117306Y209000D01*
X118011D01*
X122680Y204332D01*
X122580Y203318D01*
X118011Y198750D01*
X117306D01*
X115101Y197837D01*
X113413Y196149D01*
X112500Y193944D01*
Y191556D01*
X113413Y189351D01*
X115101Y187663D01*
X117306Y186750D01*
X119693D01*
X121899Y187663D01*
X123587Y189351D01*
X124500Y191556D01*
Y192261D01*
X127725Y195486D01*
X154427D01*
X154925Y194988D01*
X157130Y194074D01*
X159517D01*
X161723Y194988D01*
X163411Y196675D01*
X164324Y198881D01*
Y199769D01*
X165275Y200404D01*
X167661D01*
X169285Y201077D01*
X170374Y200417D01*
X170488Y200279D01*
X170382Y199750D01*
X170500Y199159D01*
Y198556D01*
X170731Y198000D01*
X170848Y197409D01*
X171183Y196908D01*
X171413Y196351D01*
X171840Y195925D01*
X172174Y195424D01*
X172675Y195089D01*
X173101Y194663D01*
X173658Y194433D01*
X174159Y194098D01*
X174750Y193981D01*
X175306Y193750D01*
X175909D01*
X176500Y193633D01*
X199750D01*
X202091Y194098D01*
X204076Y195424D01*
X213576Y204924D01*
X213911Y205425D01*
X214337Y205851D01*
X214567Y206408D01*
X214902Y206909D01*
X215019Y207500D01*
X215250Y208057D01*
Y208659D01*
X215368Y209250D01*
X215250Y209841D01*
Y210443D01*
X215019Y211000D01*
X214902Y211591D01*
X214567Y212092D01*
X214337Y212649D01*
X213911Y213075D01*
X213576Y213576D01*
X213075Y213911D01*
X212649Y214337D01*
X212092Y214567D01*
X211591Y214902D01*
X211000Y215019D01*
X210443Y215250D01*
X209841D01*
X209250Y215368D01*
X208659Y215250D01*
X208057D01*
X207500Y215019D01*
X206909Y214902D01*
X206408Y214567D01*
X205851Y214337D01*
X205425Y213911D01*
X204924Y213576D01*
X197216Y205868D01*
X176500D01*
X175909Y205750D01*
X175306D01*
X174750Y205519D01*
X174159Y205402D01*
X173687Y205086D01*
X173594Y205110D01*
X172468Y205863D01*
Y207598D01*
X171555Y209803D01*
X169867Y211491D01*
X167661Y212404D01*
X165275D01*
X163069Y211491D01*
X162741Y211162D01*
X128827D01*
X124500Y215489D01*
Y216194D01*
X123587Y218399D01*
X121899Y220087D01*
X119693Y221000D01*
D02*
G37*
G36*
X595250Y215025D02*
X592378Y214647D01*
X589702Y213538D01*
X587405Y211775D01*
X585642Y209478D01*
X584533Y206802D01*
X584155Y203930D01*
Y199930D01*
X584533Y197058D01*
X585642Y194382D01*
X587405Y192085D01*
X589702Y190322D01*
X592378Y189213D01*
X595250Y188835D01*
X598122Y189213D01*
X600798Y190322D01*
X603095Y192085D01*
X604859Y194382D01*
X605967Y197058D01*
X606345Y199930D01*
Y203930D01*
X605967Y206802D01*
X604859Y209478D01*
X603095Y211775D01*
X600798Y213538D01*
X598122Y214647D01*
X595250Y215025D01*
D02*
G37*
G36*
X519050D02*
X516178Y214647D01*
X513503Y213538D01*
X511205Y211775D01*
X509441Y209478D01*
X508333Y206802D01*
X507955Y203930D01*
Y199930D01*
X508333Y197058D01*
X509441Y194382D01*
X511205Y192085D01*
X513503Y190322D01*
X516178Y189213D01*
X519050Y188835D01*
X521922Y189213D01*
X524598Y190322D01*
X526895Y192085D01*
X528658Y194382D01*
X529767Y197058D01*
X530145Y199930D01*
Y203930D01*
X529767Y206802D01*
X528658Y209478D01*
X526895Y211775D01*
X524598Y213538D01*
X521922Y214647D01*
X519050Y215025D01*
D02*
G37*
G36*
X493650D02*
X490778Y214647D01*
X488102Y213538D01*
X485805Y211775D01*
X484041Y209478D01*
X482933Y206802D01*
X482555Y203930D01*
Y199930D01*
X482933Y197058D01*
X484041Y194382D01*
X485805Y192085D01*
X488102Y190322D01*
X490778Y189213D01*
X493650Y188835D01*
X496522Y189213D01*
X499198Y190322D01*
X501495Y192085D01*
X503259Y194382D01*
X504367Y197058D01*
X504745Y199930D01*
Y203930D01*
X504367Y206802D01*
X503259Y209478D01*
X501495Y211775D01*
X499198Y213538D01*
X496522Y214647D01*
X493650Y215025D01*
D02*
G37*
G36*
X468250D02*
X465378Y214647D01*
X462702Y213538D01*
X460405Y211775D01*
X458642Y209478D01*
X457533Y206802D01*
X457155Y203930D01*
Y199930D01*
X457533Y197058D01*
X458642Y194382D01*
X460405Y192085D01*
X462702Y190322D01*
X465378Y189213D01*
X468250Y188835D01*
X471122Y189213D01*
X473797Y190322D01*
X476095Y192085D01*
X477859Y194382D01*
X478967Y197058D01*
X479345Y199930D01*
Y203930D01*
X478967Y206802D01*
X477859Y209478D01*
X476095Y211775D01*
X473797Y213538D01*
X471122Y214647D01*
X468250Y215025D01*
D02*
G37*
G36*
X417450D02*
X414578Y214647D01*
X411903Y213538D01*
X409605Y211775D01*
X407841Y209478D01*
X406733Y206802D01*
X406355Y203930D01*
Y199930D01*
X406733Y197058D01*
X407841Y194382D01*
X409605Y192085D01*
X411903Y190322D01*
X414578Y189213D01*
X417450Y188835D01*
X420322Y189213D01*
X422998Y190322D01*
X425295Y192085D01*
X427058Y194382D01*
X428167Y197058D01*
X428545Y199930D01*
Y203930D01*
X428167Y206802D01*
X427058Y209478D01*
X425295Y211775D01*
X422998Y213538D01*
X420322Y214647D01*
X417450Y215025D01*
D02*
G37*
G36*
X392050D02*
X389178Y214647D01*
X386502Y213538D01*
X384205Y211775D01*
X382441Y209478D01*
X381333Y206802D01*
X380955Y203930D01*
Y199930D01*
X381333Y197058D01*
X382441Y194382D01*
X384205Y192085D01*
X386502Y190322D01*
X389178Y189213D01*
X392050Y188835D01*
X394922Y189213D01*
X397598Y190322D01*
X399895Y192085D01*
X401659Y194382D01*
X402767Y197058D01*
X403145Y199930D01*
Y203930D01*
X402767Y206802D01*
X401659Y209478D01*
X399895Y211775D01*
X397598Y213538D01*
X394922Y214647D01*
X392050Y215025D01*
D02*
G37*
G36*
X366650D02*
X363778Y214647D01*
X361102Y213538D01*
X358805Y211775D01*
X357042Y209478D01*
X355933Y206802D01*
X355555Y203930D01*
Y199930D01*
X355933Y197058D01*
X357042Y194382D01*
X358805Y192085D01*
X361102Y190322D01*
X363778Y189213D01*
X366650Y188835D01*
X369522Y189213D01*
X372197Y190322D01*
X374495Y192085D01*
X376259Y194382D01*
X377367Y197058D01*
X377745Y199930D01*
Y203930D01*
X377367Y206802D01*
X376259Y209478D01*
X374495Y211775D01*
X372197Y213538D01*
X369522Y214647D01*
X366650Y215025D01*
D02*
G37*
G36*
X569850Y138825D02*
X566978Y138447D01*
X564302Y137338D01*
X562005Y135575D01*
X560242Y133278D01*
X559133Y130602D01*
X558755Y127730D01*
Y123730D01*
X559133Y120858D01*
X560242Y118182D01*
X562005Y115885D01*
X564302Y114122D01*
X566978Y113013D01*
X569850Y112635D01*
X572722Y113013D01*
X575397Y114122D01*
X577695Y115885D01*
X579459Y118182D01*
X580567Y120858D01*
X580945Y123730D01*
Y127730D01*
X580567Y130602D01*
X579459Y133278D01*
X577695Y135575D01*
X575397Y137338D01*
X572722Y138447D01*
X569850Y138825D01*
D02*
G37*
G36*
X544450D02*
X541578Y138447D01*
X538903Y137338D01*
X536605Y135575D01*
X534841Y133278D01*
X533733Y130602D01*
X533355Y127730D01*
Y123730D01*
X533733Y120858D01*
X534841Y118182D01*
X536605Y115885D01*
X538903Y114122D01*
X541578Y113013D01*
X544450Y112635D01*
X547322Y113013D01*
X549997Y114122D01*
X552295Y115885D01*
X554058Y118182D01*
X555167Y120858D01*
X555545Y123730D01*
Y127730D01*
X555167Y130602D01*
X554058Y133278D01*
X552295Y135575D01*
X549997Y137338D01*
X547322Y138447D01*
X544450Y138825D01*
D02*
G37*
G36*
X431499Y155826D02*
X430328Y155593D01*
X429336Y154930D01*
X428673Y153938D01*
X428440Y152767D01*
Y146090D01*
X428545Y145564D01*
X428628Y145033D01*
X428661Y144980D01*
X428673Y144919D01*
X428971Y144473D01*
X429251Y144015D01*
X429301Y143979D01*
X429336Y143927D01*
X429782Y143629D01*
X430216Y143313D01*
X430410Y143223D01*
X430471Y143209D01*
X430523Y143174D01*
X431049Y143069D01*
X431571Y142944D01*
X431632Y142953D01*
X431693Y142941D01*
X472733D01*
X474363Y141311D01*
Y133847D01*
X474441Y133454D01*
X474467Y133055D01*
X474556Y132874D01*
X474596Y132676D01*
X474818Y132343D01*
X474995Y131985D01*
X475187Y131735D01*
X475987Y129803D01*
X476286Y127529D01*
Y123931D01*
X475987Y121657D01*
X475187Y119725D01*
X474995Y119475D01*
X474818Y119116D01*
X474596Y118784D01*
X474556Y118586D01*
X474467Y118405D01*
X474441Y118006D01*
X474363Y117613D01*
Y90388D01*
X474596Y89218D01*
X475259Y88225D01*
X476251Y87562D01*
X477422Y87330D01*
X508333Y87330D01*
X509504Y87562D01*
X510496Y88225D01*
X511159Y89218D01*
X511392Y90388D01*
X511392Y114305D01*
X512531Y114867D01*
X513503Y114122D01*
X516178Y113013D01*
X519050Y112635D01*
X521922Y113013D01*
X524598Y114122D01*
X526895Y115885D01*
X528658Y118182D01*
X529767Y120858D01*
X530145Y123730D01*
Y127730D01*
X529767Y130602D01*
X528658Y133278D01*
X526895Y135575D01*
X524598Y137338D01*
X521922Y138447D01*
X519050Y138825D01*
X516178Y138447D01*
X513503Y137338D01*
X512531Y136593D01*
X511392Y137155D01*
X511392Y152767D01*
X511159Y153938D01*
X510496Y154930D01*
X509504Y155593D01*
X508333Y155826D01*
X431499Y155826D01*
D02*
G37*
G36*
X442850Y138825D02*
X439978Y138447D01*
X437303Y137338D01*
X435005Y135575D01*
X433242Y133278D01*
X432133Y130602D01*
X431755Y127730D01*
Y123730D01*
X432133Y120858D01*
X433242Y118182D01*
X435005Y115885D01*
X437303Y114122D01*
X439978Y113013D01*
X442850Y112635D01*
X445722Y113013D01*
X448397Y114122D01*
X450695Y115885D01*
X452458Y118182D01*
X453567Y120858D01*
X453945Y123730D01*
Y127730D01*
X453567Y130602D01*
X452458Y133278D01*
X450695Y135575D01*
X448397Y137338D01*
X445722Y138447D01*
X442850Y138825D01*
D02*
G37*
G36*
X417450D02*
X414578Y138447D01*
X411903Y137338D01*
X409605Y135575D01*
X407841Y133278D01*
X406733Y130602D01*
X406355Y127730D01*
Y123730D01*
X406733Y120858D01*
X407841Y118182D01*
X409605Y115885D01*
X411903Y114122D01*
X414578Y113013D01*
X417450Y112635D01*
X420322Y113013D01*
X422998Y114122D01*
X425295Y115885D01*
X427058Y118182D01*
X428167Y120858D01*
X428545Y123730D01*
Y127730D01*
X428167Y130602D01*
X427058Y133278D01*
X425295Y135575D01*
X422998Y137338D01*
X420322Y138447D01*
X417450Y138825D01*
D02*
G37*
G36*
X392050D02*
X389178Y138447D01*
X386502Y137338D01*
X384205Y135575D01*
X382441Y133278D01*
X381333Y130602D01*
X380955Y127730D01*
Y123730D01*
X381333Y120858D01*
X382441Y118182D01*
X384205Y115885D01*
X386502Y114122D01*
X389178Y113013D01*
X392050Y112635D01*
X394922Y113013D01*
X397598Y114122D01*
X399895Y115885D01*
X401659Y118182D01*
X402767Y120858D01*
X403145Y123730D01*
Y127730D01*
X402767Y130602D01*
X401659Y133278D01*
X399895Y135575D01*
X397598Y137338D01*
X394922Y138447D01*
X392050Y138825D01*
D02*
G37*
G36*
X366650D02*
X363778Y138447D01*
X361102Y137338D01*
X358805Y135575D01*
X357042Y133278D01*
X355933Y130602D01*
X355555Y127730D01*
Y123730D01*
X355933Y120858D01*
X357042Y118182D01*
X358805Y115885D01*
X361102Y114122D01*
X363778Y113013D01*
X366650Y112635D01*
X369522Y113013D01*
X372197Y114122D01*
X374495Y115885D01*
X376259Y118182D01*
X377367Y120858D01*
X377745Y123730D01*
Y127730D01*
X377367Y130602D01*
X376259Y133278D01*
X374495Y135575D01*
X372197Y137338D01*
X369522Y138447D01*
X366650Y138825D01*
D02*
G37*
G36*
X341250D02*
X338378Y138447D01*
X335703Y137338D01*
X333405Y135575D01*
X331642Y133278D01*
X330533Y130602D01*
X330155Y127730D01*
Y123730D01*
X330533Y120858D01*
X331642Y118182D01*
X333405Y115885D01*
X335703Y114122D01*
X338378Y113013D01*
X341250Y112635D01*
X344122Y113013D01*
X346797Y114122D01*
X349095Y115885D01*
X350858Y118182D01*
X351967Y120858D01*
X352345Y123730D01*
Y127730D01*
X351967Y130602D01*
X350858Y133278D01*
X349095Y135575D01*
X346797Y137338D01*
X344122Y138447D01*
X341250Y138825D01*
D02*
G37*
G36*
X315850D02*
X312978Y138447D01*
X310303Y137338D01*
X308005Y135575D01*
X306241Y133278D01*
X305133Y130602D01*
X304755Y127730D01*
Y123730D01*
X305133Y120858D01*
X306241Y118182D01*
X308005Y115885D01*
X310303Y114122D01*
X312978Y113013D01*
X315850Y112635D01*
X318722Y113013D01*
X321398Y114122D01*
X323695Y115885D01*
X325458Y118182D01*
X326567Y120858D01*
X326945Y123730D01*
Y127730D01*
X326567Y130602D01*
X325458Y133278D01*
X323695Y135575D01*
X321398Y137338D01*
X318722Y138447D01*
X315850Y138825D01*
D02*
G37*
G36*
X290450D02*
X287578Y138447D01*
X284902Y137338D01*
X282605Y135575D01*
X280842Y133278D01*
X279733Y130602D01*
X279355Y127730D01*
Y123730D01*
X279733Y120858D01*
X280842Y118182D01*
X282605Y115885D01*
X284902Y114122D01*
X287578Y113013D01*
X290450Y112635D01*
X293322Y113013D01*
X295998Y114122D01*
X298295Y115885D01*
X300058Y118182D01*
X301167Y120858D01*
X301545Y123730D01*
Y127730D01*
X301167Y130602D01*
X300058Y133278D01*
X298295Y135575D01*
X295998Y137338D01*
X293322Y138447D01*
X290450Y138825D01*
D02*
G37*
G36*
X635000Y38495D02*
X632128Y38117D01*
X629453Y37009D01*
X627155Y35245D01*
X625392Y32947D01*
X624283Y30272D01*
X623905Y27400D01*
Y23400D01*
X624283Y20528D01*
X625392Y17852D01*
X627155Y15555D01*
X629453Y13792D01*
X632128Y12683D01*
X635000Y12305D01*
X637872Y12683D01*
X640547Y13792D01*
X642845Y15555D01*
X644609Y17852D01*
X645717Y20528D01*
X646095Y23400D01*
Y27400D01*
X645717Y30272D01*
X644609Y32947D01*
X642845Y35245D01*
X640547Y37009D01*
X637872Y38117D01*
X635000Y38495D01*
D02*
G37*
%LPD*%
G36*
X508333Y152767D02*
X508333Y130601D01*
X507955Y127730D01*
Y123730D01*
X508333Y120859D01*
X508333Y90388D01*
X477422Y90388D01*
Y117613D01*
X477859Y118182D01*
X478967Y120858D01*
X479345Y123730D01*
Y127730D01*
X478967Y130602D01*
X477859Y133278D01*
X477422Y133847D01*
Y142578D01*
X474000Y146000D01*
X431693D01*
X431499Y146090D01*
Y152767D01*
X508333Y152767D01*
D02*
G37*
%LPC*%
G36*
X493650Y138825D02*
X490778Y138447D01*
X488102Y137338D01*
X485805Y135575D01*
X484041Y133278D01*
X482933Y130602D01*
X482555Y127730D01*
Y123730D01*
X482933Y120858D01*
X484041Y118182D01*
X485805Y115885D01*
X488102Y114122D01*
X490778Y113013D01*
X493650Y112635D01*
X496522Y113013D01*
X499198Y114122D01*
X501495Y115885D01*
X503259Y118182D01*
X504367Y120858D01*
X504745Y123730D01*
Y127730D01*
X504367Y130602D01*
X503259Y133278D01*
X501495Y135575D01*
X499198Y137338D01*
X496522Y138447D01*
X493650Y138825D01*
D02*
G37*
G36*
X148000Y431695D02*
X144000D01*
X141128Y431317D01*
X138453Y430209D01*
X136155Y428445D01*
X134391Y426147D01*
X133283Y423472D01*
X132905Y420600D01*
X133283Y417728D01*
X134391Y415053D01*
X136155Y412755D01*
X138453Y410992D01*
X141128Y409883D01*
X144000Y409505D01*
X148000D01*
X150872Y409883D01*
X153547Y410992D01*
X155845Y412755D01*
X157608Y415053D01*
X158717Y417728D01*
X159095Y420600D01*
X158717Y423472D01*
X157608Y426147D01*
X155845Y428445D01*
X153547Y430209D01*
X150872Y431317D01*
X148000Y431695D01*
D02*
G37*
G36*
Y406295D02*
X144000D01*
X141128Y405917D01*
X138453Y404809D01*
X136155Y403045D01*
X134391Y400747D01*
X133283Y398072D01*
X132905Y395200D01*
X133283Y392328D01*
X134391Y389653D01*
X136155Y387355D01*
X138453Y385592D01*
X141128Y384483D01*
X144000Y384105D01*
X148000D01*
X150872Y384483D01*
X153547Y385592D01*
X155845Y387355D01*
X157608Y389653D01*
X158717Y392328D01*
X159095Y395200D01*
X158717Y398072D01*
X157608Y400747D01*
X155845Y403045D01*
X153547Y404809D01*
X150872Y405917D01*
X148000Y406295D01*
D02*
G37*
G36*
X247146Y33000D02*
X243854D01*
X240675Y32148D01*
X237825Y30503D01*
X235497Y28175D01*
X233852Y25325D01*
X233000Y22146D01*
Y18854D01*
X233852Y15675D01*
X235497Y12825D01*
X237825Y10497D01*
X240675Y8852D01*
X243854Y8000D01*
X247146D01*
X250325Y8852D01*
X253175Y10497D01*
X255502Y12825D01*
X257148Y15675D01*
X258000Y18854D01*
Y22146D01*
X257148Y25325D01*
X255502Y28175D01*
X253175Y30503D01*
X250325Y32148D01*
X247146Y33000D01*
D02*
G37*
G36*
X202146D02*
X198854D01*
X195675Y32148D01*
X192825Y30503D01*
X190497Y28175D01*
X188852Y25325D01*
X188000Y22146D01*
Y18854D01*
X188852Y15675D01*
X190497Y12825D01*
X192825Y10497D01*
X195675Y8852D01*
X198854Y8000D01*
X202146D01*
X205325Y8852D01*
X208175Y10497D01*
X210502Y12825D01*
X212148Y15675D01*
X213000Y18854D01*
Y22146D01*
X212148Y25325D01*
X210502Y28175D01*
X208175Y30503D01*
X205325Y32148D01*
X202146Y33000D01*
D02*
G37*
%LPD*%
D11*
X557000Y217273D02*
X557250Y217023D01*
X583102Y169000D02*
X583250D01*
D12*
X557250Y194852D02*
Y217023D01*
Y194852D02*
X583102Y169000D01*
X60210Y222654D02*
X60230Y222674D01*
Y231730D02*
X60250Y231750D01*
D21*
X245500Y85500D02*
D03*
D35*
X199750Y199750D02*
X209250Y209250D01*
X176500Y199750D02*
X199750D01*
D64*
X657500Y307500D02*
D03*
X592500D02*
D03*
Y262500D02*
D03*
X245500Y20500D02*
D03*
X200500D02*
D03*
Y85500D02*
D03*
D65*
X657500Y262500D02*
D03*
D73*
X328867Y421000D02*
X565000D01*
X245000Y182000D02*
Y182500D01*
X264430Y201930D01*
X290450D01*
X328500Y176250D02*
Y212337D01*
X303000Y174500D02*
Y220500D01*
X302750Y174250D02*
X303000Y174500D01*
Y220500D02*
X303250Y220750D01*
X324358Y216479D02*
X328500Y212337D01*
X321522Y442000D02*
X323280Y440243D01*
X243038Y442000D02*
X321522D01*
X323280Y426587D02*
Y440243D01*
X221234Y463804D02*
X243038Y442000D01*
X323280Y426587D02*
X328867Y421000D01*
X257681Y470750D02*
X610243D01*
X225250Y503181D02*
X257681Y470750D01*
X610243D02*
X612000Y468993D01*
Y329000D02*
Y468993D01*
X213360Y506000D02*
X255302Y464058D01*
X595713D02*
X605000Y454771D01*
X255302Y464058D02*
X595713D01*
X560580Y439420D02*
X577000Y423000D01*
X334264Y439420D02*
X560580D01*
X334010Y430276D02*
X334026Y430260D01*
X543830D02*
X543846Y430244D01*
X334026Y430260D02*
X543830D01*
X165804Y463804D02*
X221234D01*
X148000Y446000D02*
X165804Y463804D01*
X221500Y412000D02*
X580188D01*
X581188Y413000D01*
X324358Y216479D02*
Y258572D01*
X102640Y446000D02*
X148000D01*
X629750Y251250D02*
Y311250D01*
X612000Y329000D02*
X629750Y311250D01*
X641858Y163858D02*
Y239142D01*
X629750Y251250D02*
X641858Y239142D01*
X641000Y252000D02*
Y312008D01*
X651000Y163257D02*
Y242000D01*
X641000Y252000D02*
X651000Y242000D01*
X619900Y333108D02*
X641000Y312008D01*
X619000Y248000D02*
X632874Y234126D01*
X619000Y248000D02*
Y310000D01*
X632874Y165354D02*
Y234126D01*
X620650Y142650D02*
X641858Y163858D01*
X595250Y127730D02*
X632874Y165354D01*
X619900Y333108D02*
Y450150D01*
X605000Y324000D02*
X619000Y310000D01*
X225250Y503181D02*
Y514500D01*
X619900Y450150D02*
X623500Y453750D01*
X605000Y324000D02*
Y454771D01*
X581188Y413000D02*
X582000D01*
X651000Y163257D02*
X652757Y161500D01*
X662000D01*
X662000Y161500D01*
X620650Y125730D02*
Y142650D01*
X94000Y319750D02*
Y393000D01*
X595250Y125730D02*
Y127730D01*
X297210Y488250D02*
X314960Y506000D01*
X282250Y488250D02*
X297210D01*
X99750Y274750D02*
X100324Y275324D01*
Y277445D01*
X100500Y277621D01*
Y377250D01*
X126926Y206574D02*
X166298D01*
X166468Y206404D01*
X118500Y192750D02*
X125824Y200074D01*
X158324D01*
X118500Y215000D02*
X126926Y206574D01*
X314960Y506000D02*
Y508000D01*
X76200Y472440D02*
X102640Y446000D01*
X213360Y506000D02*
Y508000D01*
X187960D02*
Y510000D01*
X199460Y521500D01*
X218250D02*
X225250Y514500D01*
X199460Y521500D02*
X218250D01*
D76*
X557250Y217023D02*
Y296392D01*
X593000Y332142D01*
Y426000D01*
X566626Y452374D02*
X593000Y426000D01*
X250376Y452374D02*
X566626D01*
X221000Y481750D02*
X250376Y452374D01*
D80*
X146000Y446000D02*
D03*
X662000Y469000D02*
D03*
D81*
X146000Y420600D02*
D03*
Y395200D02*
D03*
Y369800D02*
D03*
X662000Y418200D02*
D03*
Y443600D02*
D03*
D82*
X116200Y88000D02*
D03*
X416560Y508000D02*
D03*
X635000D02*
D03*
X279400Y25400D02*
D03*
X508000D02*
D03*
X620650Y201930D02*
D03*
D83*
X141600Y88000D02*
D03*
X167000D02*
D03*
X391160Y508000D02*
D03*
X365760D02*
D03*
X340360D02*
D03*
X314960D02*
D03*
X289560D02*
D03*
X264160D02*
D03*
X238760D02*
D03*
X213360D02*
D03*
X187960D02*
D03*
X457200D02*
D03*
X482600D02*
D03*
X508000D02*
D03*
X533400D02*
D03*
X558800D02*
D03*
X584200D02*
D03*
X609600D02*
D03*
X457200Y25400D02*
D03*
X431800D02*
D03*
X406400D02*
D03*
X381000D02*
D03*
X355600D02*
D03*
X330200D02*
D03*
X304800D02*
D03*
X533400D02*
D03*
X558800D02*
D03*
X609600D02*
D03*
X635000D02*
D03*
X584200D02*
D03*
X290450Y125730D02*
D03*
X315850D02*
D03*
X341250D02*
D03*
X366650D02*
D03*
X392050D02*
D03*
X417450D02*
D03*
X442850D02*
D03*
X468250D02*
D03*
X493650D02*
D03*
X519050D02*
D03*
X544450D02*
D03*
X569850D02*
D03*
X595250D02*
D03*
X620650D02*
D03*
X290450Y201930D02*
D03*
X315850D02*
D03*
X341250D02*
D03*
X366650D02*
D03*
X392050D02*
D03*
X417450D02*
D03*
X442850D02*
D03*
X468250D02*
D03*
X493650D02*
D03*
X519050D02*
D03*
X544450D02*
D03*
X569850D02*
D03*
X595250D02*
D03*
D84*
X20000Y23000D02*
D03*
X21000Y138000D02*
D03*
D85*
X25400Y316600D02*
D03*
X50800D02*
D03*
X25400Y342000D02*
D03*
X76200Y411480D02*
D03*
X50800D02*
D03*
X25400D02*
D03*
X76200Y386080D02*
D03*
X50800D02*
D03*
X76200Y497840D02*
D03*
X50800D02*
D03*
X25400D02*
D03*
X76200Y472440D02*
D03*
X50800D02*
D03*
D86*
Y342000D02*
D03*
X25400Y386080D02*
D03*
Y472440D02*
D03*
D87*
X21995Y234000D02*
D03*
Y168000D02*
D03*
D88*
X660400Y76200D02*
D03*
Y355600D02*
D03*
X139700Y25400D02*
D03*
D89*
X152400Y508000D02*
D03*
D90*
X467153Y85653D02*
D03*
X165441Y132835D02*
D03*
X328500Y176250D02*
D03*
X302750Y174250D02*
D03*
X303250Y220750D02*
D03*
X314000Y432000D02*
D03*
X182118Y288036D02*
D03*
X116000Y148000D02*
D03*
X124000Y156000D02*
D03*
X116000D02*
D03*
X108000D02*
D03*
X129000Y176000D02*
D03*
X137000Y167000D02*
D03*
Y176000D02*
D03*
Y184000D02*
D03*
X387000Y482000D02*
D03*
X377750D02*
D03*
X543846Y430244D02*
D03*
X334264Y439420D02*
D03*
X334010Y430276D02*
D03*
X387096Y394462D02*
D03*
X378206D02*
D03*
X387152Y402507D02*
D03*
X387002Y489319D02*
D03*
X324358Y258572D02*
D03*
X10668Y278384D02*
D03*
X151638Y133638D02*
D03*
X245000Y182000D02*
D03*
X577000Y390000D02*
D03*
X581000Y397000D02*
D03*
X607000Y57000D02*
D03*
X414000Y63000D02*
D03*
X405000D02*
D03*
X321000Y72000D02*
D03*
X120000Y425000D02*
D03*
X125000Y418000D02*
D03*
X625000Y172000D02*
D03*
X625541Y183000D02*
D03*
X577000Y423000D02*
D03*
X565000Y421000D02*
D03*
X377952Y489204D02*
D03*
X582000Y413000D02*
D03*
X378206Y402590D02*
D03*
X94000Y393000D02*
D03*
X608000Y72000D02*
D03*
X85000Y115000D02*
D03*
Y123000D02*
D03*
X63459Y450000D02*
D03*
X60230Y222674D02*
D03*
X282250Y488250D02*
D03*
X674500Y131000D02*
D03*
X442000Y217250D02*
D03*
X573000Y397000D02*
D03*
X391250Y252500D02*
D03*
X473750Y252250D02*
D03*
X81250Y293250D02*
D03*
X112250Y252000D02*
D03*
X150000Y272750D02*
D03*
X140750Y225750D02*
D03*
X177250Y210000D02*
D03*
X198250D02*
D03*
X236000Y200500D02*
D03*
X241500Y228250D02*
D03*
X221750Y252500D02*
D03*
X221000Y337250D02*
D03*
X223750Y352500D02*
D03*
X195409Y434591D02*
D03*
X190000Y412000D02*
D03*
X60250Y521500D02*
D03*
X456250Y112250D02*
D03*
X423000Y63000D02*
D03*
X391750Y85000D02*
D03*
X399500Y112000D02*
D03*
X371750Y70750D02*
D03*
X306000Y82000D02*
D03*
X195500Y145500D02*
D03*
X232000Y137250D02*
D03*
X209500Y136750D02*
D03*
X79000Y247750D02*
D03*
X83000Y226500D02*
D03*
X83487Y181763D02*
D03*
X225750Y445250D02*
D03*
X172250Y417250D02*
D03*
X114000Y418000D02*
D03*
X43180Y279400D02*
D03*
X321000Y63000D02*
D03*
X287750Y71250D02*
D03*
X437500Y47250D02*
D03*
X458750Y41250D02*
D03*
X94000Y319750D02*
D03*
X100500Y377250D02*
D03*
X99750Y274750D02*
D03*
X480500Y93500D02*
D03*
X435250Y149250D02*
D03*
X166468Y206404D02*
D03*
X209250Y209250D02*
D03*
X176500Y199750D02*
D03*
X158324Y200074D02*
D03*
X60250Y231750D02*
D03*
X118500Y192750D02*
D03*
Y215000D02*
D03*
X221500Y412000D02*
D03*
X221000Y481750D02*
D03*
X583250Y169000D02*
D03*
X663000Y161500D02*
D03*
X623500Y453750D02*
D03*
M02*
