G04*
G04 #@! TF.GenerationSoftware,Altium Limited,Altium Designer,21.1.1 (26)*
G04*
G04 Layer_Color=8388736*
%FSLAX44Y44*%
%MOMM*%
G71*
G04*
G04 #@! TF.SameCoordinates,48FF6AC7-413E-474C-8440-48B8FC10FC40*
G04*
G04*
G04 #@! TF.FilePolarity,Positive*
G04*
G01*
G75*
%ADD84C,0.7000*%
%ADD96C,0.2540*%
%ADD97C,1.0160*%
%ADD98C,0.3810*%
%ADD99C,0.1524*%
D84*
X-107300Y679063D02*
Y714052D01*
X-95637Y702389D01*
X-83974Y714052D01*
Y679063D01*
X-54817D02*
X-66480D01*
X-72311Y684894D01*
Y696557D01*
X-66480Y702389D01*
X-54817D01*
X-48986Y696557D01*
Y690726D01*
X-72311D01*
X-13997Y702389D02*
X-31491D01*
X-37323Y696557D01*
Y684894D01*
X-31491Y679063D01*
X-13997D01*
X-2334Y714052D02*
Y679063D01*
Y696557D01*
X3498Y702389D01*
X15160D01*
X20992Y696557D01*
Y679063D01*
X38486Y702389D02*
X50149D01*
X55981Y696557D01*
Y679063D01*
X38486D01*
X32655Y684894D01*
X38486Y690726D01*
X55981D01*
X67643Y679063D02*
Y702389D01*
X85138D01*
X90969Y696557D01*
Y679063D01*
X102632D02*
X114295D01*
X108464D01*
Y702389D01*
X102632D01*
X155115D02*
X137621D01*
X131789Y696557D01*
Y684894D01*
X137621Y679063D01*
X155115D01*
X172610Y702389D02*
X184272D01*
X190104Y696557D01*
Y679063D01*
X172610D01*
X166778Y684894D01*
X172610Y690726D01*
X190104D01*
X201767Y679063D02*
X213430D01*
X207598D01*
Y714052D01*
X201767D01*
X265913D02*
Y679063D01*
X283407D01*
X289239Y684894D01*
Y708220D01*
X283407Y714052D01*
X265913D01*
X300902Y702389D02*
Y679063D01*
Y690726D01*
X306733Y696557D01*
X312564Y702389D01*
X318396D01*
X341722D02*
X353385D01*
X359216Y696557D01*
Y679063D01*
X341722D01*
X335890Y684894D01*
X341722Y690726D01*
X359216D01*
X370879Y702389D02*
Y684894D01*
X376710Y679063D01*
X382542Y684894D01*
X388373Y679063D01*
X394205Y684894D01*
Y702389D01*
X405868Y679063D02*
X417531D01*
X411699D01*
Y702389D01*
X405868D01*
X435025Y679063D02*
Y702389D01*
X452519D01*
X458351Y696557D01*
Y679063D01*
X481676Y667400D02*
X487508D01*
X493339Y673231D01*
Y702389D01*
X475845D01*
X470014Y696557D01*
Y684894D01*
X475845Y679063D01*
X493339D01*
X545822D02*
X557485D01*
X563317Y684894D01*
Y696557D01*
X557485Y702389D01*
X545822D01*
X539991Y696557D01*
Y684894D01*
X545822Y679063D01*
X580811D02*
Y708220D01*
Y696557D01*
X574980D01*
X586643D01*
X580811D01*
Y708220D01*
X586643Y714052D01*
X662451Y679063D02*
X639126D01*
X662451Y702389D01*
Y708220D01*
X656620Y714052D01*
X644957D01*
X639126Y708220D01*
X674114D02*
X679946Y714052D01*
X691609D01*
X697440Y708220D01*
Y702389D01*
X691609Y696557D01*
X697440Y690726D01*
Y684894D01*
X691609Y679063D01*
X679946D01*
X674114Y684894D01*
Y690726D01*
X679946Y696557D01*
X674114Y702389D01*
Y708220D01*
X679946Y696557D02*
X691609D01*
X709103Y679063D02*
Y714052D01*
X726597D01*
X732429Y708220D01*
Y696557D01*
X726597Y690726D01*
X709103D01*
X744092Y679063D02*
X755755D01*
X749923D01*
Y702389D01*
X744092D01*
X773249Y679063D02*
Y702389D01*
X790743D01*
X796575Y696557D01*
Y679063D01*
X808238D02*
X825732D01*
X831563Y684894D01*
X825732Y690726D01*
X814069D01*
X808238Y696557D01*
X814069Y702389D01*
X831563D01*
X878215D02*
X889878Y679063D01*
X901541Y702389D01*
X913204Y679063D02*
X924867D01*
X919035D01*
Y714052D01*
X913204Y708220D01*
X942361Y714052D02*
X954024D01*
X948193D01*
Y679063D01*
X942361D01*
X954024D01*
X971518D02*
X983181D01*
X977350D01*
Y714052D01*
X971518Y708220D01*
D96*
X-63500Y0D02*
X-58420Y-15240D01*
X-68580D02*
X-63500Y0D01*
X-68580Y91440D02*
X-63500Y76200D01*
X-58420Y91440D01*
X-63500Y-25400D02*
Y0D01*
Y76200D02*
Y101600D01*
X-66040Y76200D02*
X619860D01*
X-66040Y0D02*
X-2540D01*
X0Y-411480D02*
X15240Y-406400D01*
X0Y-411480D02*
X15240Y-416560D01*
X645160D02*
X660400Y-411480D01*
X645160Y-406400D02*
X660400Y-411480D01*
X0D02*
X294141D01*
X358131D02*
X660400D01*
X0Y-414020D02*
Y-7620D01*
X660400Y-414020D02*
Y314960D01*
X0Y-347980D02*
X15240Y-342900D01*
X0Y-347980D02*
X15240Y-353060D01*
X619760D02*
X635000Y-347980D01*
X619760Y-342900D02*
X635000Y-347980D01*
X0D02*
X281441D01*
X345431D02*
X635000D01*
X0Y-350520D02*
Y-7620D01*
X635000Y-350520D02*
Y508000D01*
X0Y-289560D02*
X15240Y-284480D01*
X0Y-289560D02*
X15240Y-294640D01*
X492760D02*
X508000Y-289560D01*
X492760Y-284480D02*
X508000Y-289560D01*
X0D02*
X217941D01*
X281931D02*
X508000D01*
X0Y-292100D02*
Y-7620D01*
X508000Y-292100D02*
Y25400D01*
X0Y-246380D02*
X15240Y-241300D01*
X0Y-246380D02*
X15240Y-251460D01*
X401320D02*
X416560Y-246380D01*
X401320Y-241300D02*
X416560Y-246380D01*
X0D02*
X173491D01*
X234941D02*
X416560D01*
X0Y-248920D02*
Y-7620D01*
X416560Y-248920D02*
Y508000D01*
X0Y-205740D02*
X15240Y-200660D01*
X0Y-205740D02*
X15240Y-210820D01*
X264160D02*
X279400Y-205740D01*
X264160Y-200660D02*
X279400Y-205740D01*
X0D02*
X106180D01*
X165092D02*
X279400D01*
X0Y-208280D02*
Y-7620D01*
X279400Y-208280D02*
Y25400D01*
X0Y-165100D02*
X15240Y-160020D01*
X0Y-165100D02*
X15240Y-170180D01*
X137160D02*
X152400Y-165100D01*
X137160Y-160020D02*
X152400Y-165100D01*
X0D02*
X47759D01*
X96513D02*
X152400D01*
X0Y-167640D02*
Y-7620D01*
X152400Y-167640D02*
Y477520D01*
X0Y-119380D02*
X15240Y-114300D01*
X0Y-119380D02*
X15240Y-124460D01*
X124460D02*
X139700Y-119380D01*
X124460Y-114300D02*
X139700Y-119380D01*
X0D02*
X41409D01*
X90163D02*
X139700D01*
X0Y-121920D02*
Y-7620D01*
X139700Y-121920D02*
Y-12700D01*
X-320040Y15240D02*
X-314960Y0D01*
X-309880Y15240D01*
X-314960Y508000D02*
X-309880Y492760D01*
X-320040D02*
X-314960Y508000D01*
Y0D02*
Y217941D01*
Y281931D02*
Y508000D01*
X-317500Y0D02*
X-7620D01*
X-317500Y508000D02*
X635000D01*
X-269240Y15240D02*
X-264160Y0D01*
X-259080Y15240D01*
X-264160Y472440D02*
X-259080Y457200D01*
X-269240D02*
X-264160Y472440D01*
Y0D02*
Y201431D01*
Y262881D02*
Y472440D01*
X-266700Y0D02*
X-7620D01*
X-266700Y472440D02*
X25400D01*
X-223520Y15240D02*
X-218440Y0D01*
X-213360Y15240D01*
X-218440Y386080D02*
X-213360Y370840D01*
X-223520D02*
X-218440Y386080D01*
Y0D02*
Y158251D01*
Y219701D02*
Y386080D01*
X-220980Y0D02*
X-7620D01*
X-220980Y386080D02*
X25400D01*
X-177800Y15240D02*
X-172720Y0D01*
X-167640Y15240D01*
X-172720Y355600D02*
X-167640Y340360D01*
X-177800D02*
X-172720Y355600D01*
Y0D02*
Y143011D01*
Y204461D02*
Y355600D01*
X-175260Y0D02*
X-7620D01*
X-175260Y355600D02*
X619760D01*
X-131572Y15240D02*
X-126492Y0D01*
X-121412Y15240D01*
X-126492Y233934D02*
X-121412Y218694D01*
X-131572D02*
X-126492Y233934D01*
Y0D02*
Y91065D01*
Y134741D02*
Y233934D01*
X-129032Y0D02*
X-7620D01*
X-129032Y233934D02*
X22098D01*
X-96520Y15240D02*
X-91440Y0D01*
X-86360Y15240D01*
X-91440Y138176D02*
X-86360Y122936D01*
X-96520D02*
X-91440Y138176D01*
Y0D02*
Y40647D01*
Y89401D02*
Y138176D01*
X-93980Y0D02*
X-7620D01*
X-93980Y138176D02*
X21082D01*
X25400Y-73660D02*
X40640Y-68580D01*
X25400Y-73660D02*
X40640Y-78740D01*
X-15240D02*
X0Y-73660D01*
X-15240Y-68580D02*
X0Y-73660D01*
X25400D02*
X50800D01*
X-25400D02*
X0D01*
Y-76200D02*
Y-7620D01*
X25400Y-76200D02*
Y472440D01*
X20320Y-40640D02*
X35560Y-35560D01*
X20320Y-40640D02*
X35560Y-45720D01*
X-15240D02*
X0Y-40640D01*
X-15240Y-35560D02*
X0Y-40640D01*
X20320D02*
X45720D01*
X-25400D02*
X0D01*
Y-43180D02*
Y-7620D01*
X20320Y-43180D02*
Y22860D01*
X-45720Y38100D02*
X-40640Y22860D01*
X-35560Y38100D01*
X-40640Y0D02*
X-35560Y-15240D01*
X-45720D02*
X-40640Y0D01*
Y22860D02*
Y48260D01*
Y-25400D02*
Y0D01*
X-43180D02*
X-7620D01*
X-43180Y22860D02*
X20320D01*
X0Y-497840D02*
X15240Y-492760D01*
X0Y-497840D02*
X15240Y-502920D01*
X670560D02*
X685800Y-497840D01*
X670560Y-492760D02*
X685800Y-497840D01*
X0D02*
X306841D01*
X370831D02*
X685800D01*
X0Y-500380D02*
Y-7620D01*
X685800Y-500380D02*
Y-7620D01*
X-375920Y15240D02*
X-370840Y0D01*
X-365760Y15240D01*
X-370840Y533400D02*
X-365760Y518160D01*
X-375920D02*
X-370840Y533400D01*
Y0D02*
Y231911D01*
Y293361D02*
Y533400D01*
X-373380Y0D02*
X-7620D01*
X-373380Y533400D02*
X-7620D01*
D97*
X676400Y355600D02*
G03*
X676400Y355600I-16000J0D01*
G01*
Y76200D02*
G03*
X676400Y76200I-16000J0D01*
G01*
X155700Y25400D02*
G03*
X155700Y25400I-16000J0D01*
G01*
X168400Y508000D02*
G03*
X168400Y508000I-16000J0D01*
G01*
X0Y533400D02*
X685800D01*
Y0D02*
Y533400D01*
X0Y0D02*
X685800D01*
X0D02*
Y533400D01*
D98*
X-287448Y-169762D02*
X-290833Y-166377D01*
X-297604D01*
X-300990Y-169762D01*
Y-173148D01*
X-297604Y-176533D01*
X-290833D01*
X-287448Y-179919D01*
Y-183304D01*
X-290833Y-186690D01*
X-297604D01*
X-300990Y-183304D01*
X-267134Y-173148D02*
X-277291D01*
X-280677Y-176533D01*
Y-183304D01*
X-277291Y-186690D01*
X-267134D01*
X-256978Y-173148D02*
X-250206D01*
X-246821Y-176533D01*
Y-186690D01*
X-256978D01*
X-260363Y-183304D01*
X-256978Y-179919D01*
X-246821D01*
X-240050Y-186690D02*
X-233279D01*
X-236664D01*
Y-166377D01*
X-240050D01*
X-212965Y-186690D02*
X-219736D01*
X-223122Y-183304D01*
Y-176533D01*
X-219736Y-173148D01*
X-212965D01*
X-209580Y-176533D01*
Y-179919D01*
X-223122D01*
X-202808Y-173148D02*
X-199423D01*
Y-176533D01*
X-202808D01*
Y-173148D01*
Y-183304D02*
X-199423D01*
Y-186690D01*
X-202808D01*
Y-183304D01*
X-165567Y-186690D02*
X-158796D01*
X-162182D01*
Y-166377D01*
X-165567Y-169762D01*
X-148639Y-173148D02*
X-145254D01*
Y-176533D01*
X-148639D01*
Y-173148D01*
Y-183304D02*
X-145254D01*
Y-186690D01*
X-148639D01*
Y-183304D01*
X-131712Y-186690D02*
X-124940D01*
X-128326D01*
Y-166377D01*
X-131712Y-169762D01*
X-300990Y-128277D02*
Y-145204D01*
X-297604Y-148590D01*
X-290833D01*
X-287448Y-145204D01*
Y-128277D01*
X-280677Y-148590D02*
Y-135048D01*
X-270520D01*
X-267134Y-138433D01*
Y-148590D01*
X-260363D02*
X-253592D01*
X-256978D01*
Y-135048D01*
X-260363D01*
X-240050Y-131662D02*
Y-135048D01*
X-243435D01*
X-236664D01*
X-240050D01*
Y-145204D01*
X-236664Y-148590D01*
X-226507D02*
X-216351D01*
X-212965Y-145204D01*
X-216351Y-141819D01*
X-223122D01*
X-226507Y-138433D01*
X-223122Y-135048D01*
X-212965D01*
X-206194D02*
X-202808D01*
Y-138433D01*
X-206194D01*
Y-135048D01*
Y-145204D02*
X-202808D01*
Y-148590D01*
X-206194D01*
Y-145204D01*
X-168953Y-148590D02*
Y-135048D01*
X-165567D01*
X-162182Y-138433D01*
Y-148590D01*
Y-138433D01*
X-158796Y-135048D01*
X-155410Y-138433D01*
Y-148590D01*
X-148639D02*
X-141868D01*
X-145254D01*
Y-135048D01*
X-148639D01*
X-131712Y-148590D02*
X-124940D01*
X-128326D01*
Y-128277D01*
X-131712D01*
X-114784Y-148590D02*
X-104627D01*
X-101241Y-145204D01*
X-104627Y-141819D01*
X-111398D01*
X-114784Y-138433D01*
X-111398Y-135048D01*
X-101241D01*
D99*
X-67054Y-71615D02*
X-69594Y-69076D01*
Y-63997D01*
X-67054Y-61458D01*
X-64515D01*
X-61976Y-63997D01*
Y-66536D01*
Y-63997D01*
X-59437Y-61458D01*
X-56898D01*
X-54359Y-63997D01*
Y-69076D01*
X-56898Y-71615D01*
X-67054Y-56380D02*
X-69594Y-53841D01*
Y-48762D01*
X-67054Y-46223D01*
X-56898D01*
X-54359Y-48762D01*
Y-53841D01*
X-56898Y-56380D01*
X-67054D01*
Y-41145D02*
X-69594Y-38605D01*
Y-33527D01*
X-67054Y-30988D01*
X-56898D01*
X-54359Y-33527D01*
Y-38605D01*
X-56898Y-41145D01*
X-67054D01*
X308362Y-420621D02*
X298205D01*
X308362Y-410465D01*
Y-407926D01*
X305823Y-405387D01*
X300744D01*
X298205Y-407926D01*
X323597Y-405387D02*
X318518Y-407926D01*
X313440Y-413004D01*
Y-418082D01*
X315979Y-420621D01*
X321058D01*
X323597Y-418082D01*
Y-415543D01*
X321058Y-413004D01*
X313440D01*
X328675Y-407926D02*
X331214Y-405387D01*
X336293D01*
X338832Y-407926D01*
Y-418082D01*
X336293Y-420621D01*
X331214D01*
X328675Y-418082D01*
Y-407926D01*
X343910D02*
X346449Y-405387D01*
X351528D01*
X354067Y-407926D01*
Y-418082D01*
X351528Y-420621D01*
X346449D01*
X343910Y-418082D01*
Y-407926D01*
X295662Y-357122D02*
X285505D01*
X295662Y-346965D01*
Y-344426D01*
X293123Y-341886D01*
X288044D01*
X285505Y-344426D01*
X310897Y-341886D02*
X300740D01*
Y-349504D01*
X305818Y-346965D01*
X308358D01*
X310897Y-349504D01*
Y-354582D01*
X308358Y-357122D01*
X303279D01*
X300740Y-354582D01*
X315975Y-344426D02*
X318514Y-341886D01*
X323593D01*
X326132Y-344426D01*
Y-354582D01*
X323593Y-357122D01*
X318514D01*
X315975Y-354582D01*
Y-344426D01*
X331210D02*
X333749Y-341886D01*
X338828D01*
X341367Y-344426D01*
Y-354582D01*
X338828Y-357122D01*
X333749D01*
X331210Y-354582D01*
Y-344426D01*
X232162Y-298701D02*
X222005D01*
X232162Y-288545D01*
Y-286006D01*
X229623Y-283466D01*
X224544D01*
X222005Y-286006D01*
X237240D02*
X239779Y-283466D01*
X244858D01*
X247397Y-286006D01*
Y-296162D01*
X244858Y-298701D01*
X239779D01*
X237240Y-296162D01*
Y-286006D01*
X252475D02*
X255014Y-283466D01*
X260093D01*
X262632Y-286006D01*
Y-296162D01*
X260093Y-298701D01*
X255014D01*
X252475Y-296162D01*
Y-286006D01*
X267710D02*
X270249Y-283466D01*
X275328D01*
X277867Y-286006D01*
Y-296162D01*
X275328Y-298701D01*
X270249D01*
X267710Y-296162D01*
Y-286006D01*
X177555Y-255522D02*
X182633D01*
X180094D01*
Y-240287D01*
X177555Y-242826D01*
X200407Y-240287D02*
X195329Y-242826D01*
X190250Y-247904D01*
Y-252982D01*
X192790Y-255522D01*
X197868D01*
X200407Y-252982D01*
Y-250443D01*
X197868Y-247904D01*
X190250D01*
X213103Y-255522D02*
Y-240287D01*
X205486Y-247904D01*
X215642D01*
X220721Y-242826D02*
X223260Y-240287D01*
X228338D01*
X230877Y-242826D01*
Y-252982D01*
X228338Y-255522D01*
X223260D01*
X220721Y-252982D01*
Y-242826D01*
X110244Y-214881D02*
X115323D01*
X112783D01*
Y-199646D01*
X110244Y-202186D01*
X122940Y-214881D02*
X128018D01*
X125479D01*
Y-199646D01*
X122940Y-202186D01*
X135636D02*
X138175Y-199646D01*
X143253D01*
X145793Y-202186D01*
Y-212342D01*
X143253Y-214881D01*
X138175D01*
X135636Y-212342D01*
Y-202186D01*
X150871D02*
X153410Y-199646D01*
X158489D01*
X161028Y-202186D01*
Y-212342D01*
X158489Y-214881D01*
X153410D01*
X150871Y-212342D01*
Y-202186D01*
X61979Y-159007D02*
X56901Y-161546D01*
X51823Y-166624D01*
Y-171702D01*
X54362Y-174242D01*
X59440D01*
X61979Y-171702D01*
Y-169163D01*
X59440Y-166624D01*
X51823D01*
X67058Y-161546D02*
X69597Y-159007D01*
X74675D01*
X77214Y-161546D01*
Y-171702D01*
X74675Y-174242D01*
X69597D01*
X67058Y-171702D01*
Y-161546D01*
X82293D02*
X84832Y-159007D01*
X89910D01*
X92449Y-161546D01*
Y-171702D01*
X89910Y-174242D01*
X84832D01*
X82293Y-171702D01*
Y-161546D01*
X55629Y-113287D02*
X45473D01*
Y-120904D01*
X50551Y-118365D01*
X53090D01*
X55629Y-120904D01*
Y-125982D01*
X53090Y-128521D01*
X48012D01*
X45473Y-125982D01*
X70864Y-113287D02*
X60708D01*
Y-120904D01*
X65786Y-118365D01*
X68325D01*
X70864Y-120904D01*
Y-125982D01*
X68325Y-128521D01*
X63247D01*
X60708Y-125982D01*
X75943Y-115826D02*
X78482Y-113287D01*
X83560D01*
X86099Y-115826D01*
Y-125982D01*
X83560Y-128521D01*
X78482D01*
X75943Y-125982D01*
Y-115826D01*
X-305819Y232162D02*
Y222005D01*
X-315975Y232162D01*
X-318514D01*
X-321054Y229623D01*
Y224544D01*
X-318514Y222005D01*
Y237240D02*
X-321054Y239779D01*
Y244858D01*
X-318514Y247397D01*
X-308358D01*
X-305819Y244858D01*
Y239779D01*
X-308358Y237240D01*
X-318514D01*
Y252475D02*
X-321054Y255014D01*
Y260093D01*
X-318514Y262632D01*
X-308358D01*
X-305819Y260093D01*
Y255014D01*
X-308358Y252475D01*
X-318514D01*
Y267710D02*
X-321054Y270249D01*
Y275328D01*
X-318514Y277867D01*
X-308358D01*
X-305819Y275328D01*
Y270249D01*
X-308358Y267710D01*
X-318514D01*
X-255019Y205495D02*
Y210573D01*
Y208034D01*
X-270254D01*
X-267714Y205495D01*
Y218190D02*
X-270254Y220730D01*
Y225808D01*
X-267714Y228347D01*
X-265175D01*
X-262636Y225808D01*
X-260097Y228347D01*
X-257558D01*
X-255019Y225808D01*
Y220730D01*
X-257558Y218190D01*
X-260097D01*
X-262636Y220730D01*
X-265175Y218190D01*
X-267714D01*
X-262636Y220730D02*
Y225808D01*
X-270254Y243582D02*
X-267714Y238504D01*
X-262636Y233426D01*
X-257558D01*
X-255019Y235965D01*
Y241043D01*
X-257558Y243582D01*
X-260097D01*
X-262636Y241043D01*
Y233426D01*
X-267714Y248661D02*
X-270254Y251200D01*
Y256278D01*
X-267714Y258817D01*
X-257558D01*
X-255019Y256278D01*
Y251200D01*
X-257558Y248661D01*
X-267714D01*
X-209298Y162315D02*
Y167393D01*
Y164854D01*
X-224534D01*
X-221994Y162315D01*
X-224534Y185167D02*
Y175011D01*
X-216916D01*
X-219455Y180089D01*
Y182628D01*
X-216916Y185167D01*
X-211838D01*
X-209298Y182628D01*
Y177550D01*
X-211838Y175011D01*
X-209298Y200402D02*
Y190246D01*
X-219455Y200402D01*
X-221994D01*
X-224534Y197863D01*
Y192785D01*
X-221994Y190246D01*
Y205481D02*
X-224534Y208020D01*
Y213098D01*
X-221994Y215637D01*
X-211838D01*
X-209298Y213098D01*
Y208020D01*
X-211838Y205481D01*
X-221994D01*
X-163578Y147075D02*
Y152153D01*
Y149614D01*
X-178813D01*
X-176274Y147075D01*
X-163578Y167388D02*
X-178813D01*
X-171196Y159770D01*
Y169927D01*
X-176274Y175006D02*
X-178813Y177545D01*
Y182623D01*
X-176274Y185162D01*
X-166118D01*
X-163578Y182623D01*
Y177545D01*
X-166118Y175006D01*
X-176274D01*
Y190241D02*
X-178813Y192780D01*
Y197858D01*
X-176274Y200397D01*
X-166118D01*
X-163578Y197858D01*
Y192780D01*
X-166118Y190241D01*
X-176274D01*
X-119890Y95129D02*
X-117351Y97668D01*
Y102746D01*
X-119890Y105286D01*
X-130046D01*
X-132585Y102746D01*
Y97668D01*
X-130046Y95129D01*
X-127507D01*
X-124968Y97668D01*
Y105286D01*
X-117351Y120520D02*
Y110364D01*
X-127507Y120520D01*
X-130046D01*
X-132585Y117981D01*
Y112903D01*
X-130046Y110364D01*
X-117351Y125599D02*
Y130677D01*
Y128138D01*
X-132585D01*
X-130046Y125599D01*
X-97534Y54867D02*
Y44711D01*
X-89916D01*
X-92455Y49789D01*
Y52328D01*
X-89916Y54867D01*
X-84838D01*
X-82298Y52328D01*
Y47250D01*
X-84838Y44711D01*
X-82298Y67563D02*
X-97534D01*
X-89916Y59946D01*
Y70102D01*
X-82298Y82798D02*
X-97534D01*
X-89916Y75181D01*
Y85337D01*
X53340Y-82802D02*
X58418D01*
X55879D01*
Y-67566D01*
X53340Y-70106D01*
X66036D02*
X68575Y-67566D01*
X73653D01*
X76193Y-70106D01*
Y-80262D01*
X73653Y-82802D01*
X68575D01*
X66036Y-80262D01*
Y-70106D01*
X81271D02*
X83810Y-67566D01*
X88889D01*
X91428Y-70106D01*
Y-80262D01*
X88889Y-82802D01*
X83810D01*
X81271Y-80262D01*
Y-70106D01*
X48260Y-37086D02*
X50799Y-34546D01*
X55877D01*
X58417Y-37086D01*
Y-39625D01*
X55877Y-42164D01*
X58417Y-44703D01*
Y-47242D01*
X55877Y-49781D01*
X50799D01*
X48260Y-47242D01*
Y-44703D01*
X50799Y-42164D01*
X48260Y-39625D01*
Y-37086D01*
X50799Y-42164D02*
X55877D01*
X63495Y-37086D02*
X66034Y-34546D01*
X71113D01*
X73652Y-37086D01*
Y-47242D01*
X71113Y-49781D01*
X66034D01*
X63495Y-47242D01*
Y-37086D01*
X-34038Y-56380D02*
X-31498Y-53841D01*
Y-48762D01*
X-34038Y-46223D01*
X-44194D01*
X-46733Y-48762D01*
Y-53841D01*
X-44194Y-56380D01*
X-41655D01*
X-39116Y-53841D01*
Y-46223D01*
X-44194Y-41145D02*
X-46733Y-38605D01*
Y-33527D01*
X-44194Y-30988D01*
X-34038D01*
X-31498Y-33527D01*
Y-38605D01*
X-34038Y-41145D01*
X-44194D01*
X321062Y-506982D02*
X310905D01*
X321062Y-496825D01*
Y-494286D01*
X318523Y-491746D01*
X313444D01*
X310905Y-494286D01*
X326140Y-491746D02*
X336297D01*
Y-494286D01*
X326140Y-504442D01*
Y-506982D01*
X341375Y-494286D02*
X343914Y-491746D01*
X348993D01*
X351532Y-494286D01*
Y-504442D01*
X348993Y-506982D01*
X343914D01*
X341375Y-504442D01*
Y-494286D01*
X356610D02*
X359149Y-491746D01*
X364228D01*
X366767Y-494286D01*
Y-504442D01*
X364228Y-506982D01*
X359149D01*
X356610Y-504442D01*
Y-494286D01*
X-361698Y246131D02*
Y235975D01*
X-371855Y246131D01*
X-374394D01*
X-376934Y243592D01*
Y238514D01*
X-374394Y235975D01*
X-361698Y251210D02*
Y256288D01*
Y253749D01*
X-376934D01*
X-374394Y251210D01*
Y263906D02*
X-376934Y266445D01*
Y271523D01*
X-374394Y274062D01*
X-364238D01*
X-361698Y271523D01*
Y266445D01*
X-364238Y263906D01*
X-374394D01*
Y279141D02*
X-376934Y281680D01*
Y286758D01*
X-374394Y289297D01*
X-364238D01*
X-361698Y286758D01*
Y281680D01*
X-364238Y279141D01*
X-374394D01*
M02*
