G04*
G04 #@! TF.GenerationSoftware,Altium Limited,Altium Designer,21.1.1 (26)*
G04*
G04 Layer_Color=8421504*
%FSLAX44Y44*%
%MOMM*%
G71*
G04*
G04 #@! TF.SameCoordinates,2A0D6200-5384-45BE-AE35-18FCF66999C0*
G04*
G04*
G04 #@! TF.FilePolarity,Positive*
G04*
G01*
G75*
%ADD14R,0.7000X1.3000*%
%ADD15R,0.6000X2.2000*%
%ADD16R,3.5000X2.2000*%
%ADD17R,2.7000X2.0000*%
%ADD18R,1.3000X0.7000*%
%ADD19R,1.6000X3.0000*%
%ADD20R,1.3500X0.4000*%
%ADD21R,1.9000X1.9000*%
%ADD22R,1.4000X1.6000*%
%ADD23R,0.5500X1.5000*%
%ADD24R,1.5000X0.5500*%
%ADD25R,1.0000X0.5500*%
%ADD26R,0.5500X1.0000*%
%ADD27R,2.5000X2.6000*%
%ADD28R,2.6000X2.5000*%
%ADD29R,0.9000X0.6000*%
%ADD30R,0.9000X1.3000*%
%ADD31R,1.3000X0.9000*%
%ADD32R,0.8000X0.8000*%
%ADD33R,0.6858X0.5588*%
%ADD34R,0.5588X0.6858*%
%ADD35C,0.6000*%
D14*
X423000Y229000D02*
D03*
X404000D02*
D03*
X301500Y449000D02*
D03*
X282500D02*
D03*
Y428000D02*
D03*
X301500D02*
D03*
X108500Y360000D02*
D03*
X89500D02*
D03*
X110500Y215000D02*
D03*
X91500D02*
D03*
Y193000D02*
D03*
X110500D02*
D03*
Y168000D02*
D03*
X91500D02*
D03*
X379500Y99000D02*
D03*
X360500D02*
D03*
X625500Y227000D02*
D03*
X606500D02*
D03*
X253492Y447802D02*
D03*
X234492D02*
D03*
X589534Y351282D02*
D03*
X570534D02*
D03*
X16764Y253238D02*
D03*
X35764D02*
D03*
X285500Y89000D02*
D03*
X266500D02*
D03*
X149500Y213000D02*
D03*
X130500D02*
D03*
D15*
X136600Y115000D02*
D03*
X149300D02*
D03*
X162000D02*
D03*
X174700D02*
D03*
X187400D02*
D03*
D16*
X162000Y177000D02*
D03*
D17*
X21500Y68750D02*
D03*
Y100750D02*
D03*
D18*
X173250Y386500D02*
D03*
Y405500D02*
D03*
X91000Y261500D02*
D03*
Y280500D02*
D03*
X218000Y266500D02*
D03*
Y285500D02*
D03*
X609346Y473812D02*
D03*
Y454812D02*
D03*
X586740Y454660D02*
D03*
Y473660D02*
D03*
X636000Y433500D02*
D03*
Y414500D02*
D03*
X664000Y208750D02*
D03*
Y189750D02*
D03*
X29210Y270510D02*
D03*
Y289510D02*
D03*
X664000Y222500D02*
D03*
Y241500D02*
D03*
X270000Y71500D02*
D03*
Y52500D02*
D03*
X253000Y164500D02*
D03*
Y145500D02*
D03*
X643500Y222500D02*
D03*
Y241500D02*
D03*
X332740Y85954D02*
D03*
Y66954D02*
D03*
Y47904D02*
D03*
Y66904D02*
D03*
D19*
X70000Y71500D02*
D03*
Y30500D02*
D03*
X71000Y147500D02*
D03*
Y106500D02*
D03*
D20*
X48745Y214000D02*
D03*
Y207500D02*
D03*
Y201000D02*
D03*
Y194500D02*
D03*
Y188000D02*
D03*
D21*
X21995Y213000D02*
D03*
Y189000D02*
D03*
D22*
X46495Y169000D02*
D03*
Y233000D02*
D03*
D23*
X182000Y258000D02*
D03*
X174000D02*
D03*
X166000D02*
D03*
X158000D02*
D03*
X150000D02*
D03*
X142000D02*
D03*
X134000D02*
D03*
X126000D02*
D03*
Y342000D02*
D03*
X134000D02*
D03*
X142000D02*
D03*
X150000D02*
D03*
X158000D02*
D03*
X166000D02*
D03*
X174000D02*
D03*
X182000D02*
D03*
D24*
X112000Y272000D02*
D03*
Y280000D02*
D03*
Y288000D02*
D03*
Y296000D02*
D03*
Y304000D02*
D03*
Y312000D02*
D03*
Y320000D02*
D03*
Y328000D02*
D03*
X196000Y320000D02*
D03*
Y312000D02*
D03*
Y304000D02*
D03*
Y296000D02*
D03*
Y288000D02*
D03*
Y280000D02*
D03*
Y272000D02*
D03*
Y328000D02*
D03*
D25*
X194500Y425000D02*
D03*
Y444000D02*
D03*
X167500Y425000D02*
D03*
Y434500D02*
D03*
Y444000D02*
D03*
X234480Y145440D02*
D03*
Y164440D02*
D03*
X207480Y145440D02*
D03*
Y154940D02*
D03*
Y164440D02*
D03*
D26*
X52250Y249250D02*
D03*
X61750D02*
D03*
X71250D02*
D03*
X52250Y276250D02*
D03*
X71250D02*
D03*
X660500Y172500D02*
D03*
X651000D02*
D03*
X641500D02*
D03*
X660500Y145500D02*
D03*
X641500D02*
D03*
D27*
X409750Y284250D02*
D03*
X458750D02*
D03*
D28*
X251000Y322500D02*
D03*
Y273500D02*
D03*
D29*
X74000Y226500D02*
D03*
Y211500D02*
D03*
Y182000D02*
D03*
Y197000D02*
D03*
D30*
X93522Y238760D02*
D03*
X112522D02*
D03*
X571500Y330200D02*
D03*
X590500D02*
D03*
X459500Y53000D02*
D03*
X478500D02*
D03*
X131000Y235000D02*
D03*
X150000D02*
D03*
X260500Y354000D02*
D03*
X241500D02*
D03*
X261000Y244000D02*
D03*
X242000D02*
D03*
X382000Y49000D02*
D03*
X401000D02*
D03*
X23500Y522000D02*
D03*
X42500D02*
D03*
X478500Y76000D02*
D03*
X459500D02*
D03*
X460500Y229000D02*
D03*
X441500D02*
D03*
X239420Y480568D02*
D03*
X258420D02*
D03*
X417500Y76000D02*
D03*
X398500D02*
D03*
X417000Y99000D02*
D03*
X398000D02*
D03*
X442772Y99314D02*
D03*
X461772D02*
D03*
X423250Y252000D02*
D03*
X404250D02*
D03*
X444000D02*
D03*
X463000D02*
D03*
X660500Y126000D02*
D03*
X641500D02*
D03*
X51866Y293624D02*
D03*
X70866D02*
D03*
D31*
X643500Y188750D02*
D03*
Y207750D02*
D03*
X232000Y126500D02*
D03*
Y107500D02*
D03*
X197000Y181500D02*
D03*
Y200500D02*
D03*
X438000Y58500D02*
D03*
Y77500D02*
D03*
X221250Y219250D02*
D03*
Y238250D02*
D03*
X201000Y238500D02*
D03*
Y219500D02*
D03*
X218250Y302250D02*
D03*
Y321250D02*
D03*
X176750Y238000D02*
D03*
Y219000D02*
D03*
X23000Y432750D02*
D03*
Y451750D02*
D03*
X636000Y472500D02*
D03*
Y453500D02*
D03*
X116000Y112500D02*
D03*
Y131500D02*
D03*
X209000Y108000D02*
D03*
Y127000D02*
D03*
X306000Y49500D02*
D03*
Y68500D02*
D03*
X356616Y50698D02*
D03*
Y69698D02*
D03*
X212500Y426500D02*
D03*
Y445500D02*
D03*
X219964Y181406D02*
D03*
Y200406D02*
D03*
D32*
X589280Y369062D02*
D03*
X573280D02*
D03*
X237492Y427482D02*
D03*
X253492D02*
D03*
X253500Y405500D02*
D03*
X237500D02*
D03*
X253500Y385250D02*
D03*
X237500D02*
D03*
D33*
X10668Y269494D02*
D03*
Y293878D02*
D03*
D34*
X628000Y245000D02*
D03*
X603616D02*
D03*
D35*
X459500Y78000D02*
X467153Y85653D01*
M02*
