G04*
G04 #@! TF.GenerationSoftware,Altium Limited,Altium Designer,21.1.1 (26)*
G04*
G04 Layer_Color=8421504*
%FSLAX44Y44*%
%MOMM*%
G71*
G04*
G04 #@! TF.SameCoordinates,48FF6AC7-413E-474C-8440-48B8FC10FC40*
G04*
G04*
G04 #@! TF.FilePolarity,Positive*
G04*
G01*
G75*
%ADD11C,0.5000*%
%ADD12C,0.4000*%
%ADD14R,2.7000X2.0000*%
%ADD15R,1.3000X0.7000*%
%ADD16R,0.7000X1.3000*%
%ADD17R,1.6000X3.0000*%
%ADD18R,1.3500X0.4000*%
%ADD19R,1.9000X1.9000*%
%ADD20R,1.4000X1.6000*%
%ADD21R,0.5500X1.5000*%
%ADD22R,1.5000X0.5500*%
%ADD23R,3.5000X2.2000*%
%ADD24R,0.6000X2.2000*%
%ADD25R,1.0000X0.5500*%
%ADD26R,0.5500X1.0000*%
%ADD27R,2.5000X2.6000*%
%ADD28R,2.6000X2.5000*%
%ADD29R,0.9000X0.6000*%
%ADD30R,0.9000X1.3000*%
%ADD31R,1.3000X0.9000*%
%ADD32R,0.8000X0.8000*%
%ADD33R,0.6858X0.5588*%
%ADD34R,0.5588X0.6858*%
%ADD35C,0.5500*%
%ADD36C,0.3000*%
%ADD37C,0.6500*%
%ADD38C,0.6000*%
%ADD39C,0.8000*%
%ADD40C,1.0000*%
%ADD41C,0.9000*%
D11*
X195000Y240500D02*
X199000D01*
X182000Y253250D02*
Y258000D01*
X182500Y253000D02*
X195000Y240500D01*
X199000D02*
X201000Y238500D01*
X173000Y292000D02*
X177000Y296000D01*
X196000D01*
X154855Y192574D02*
X169324D01*
X149500Y197929D02*
X154855Y192574D01*
X149500Y197929D02*
Y213000D01*
X169324Y192574D02*
X176500Y199750D01*
X181875Y258125D02*
Y273000D01*
X173000Y281875D02*
X181875Y273000D01*
X173000Y281875D02*
Y292000D01*
X196000Y296000D02*
X210000D01*
X142000Y248000D02*
Y258000D01*
X131000Y237000D02*
X142000Y248000D01*
X210000Y296000D02*
X216250Y302250D01*
X174000Y240500D02*
Y258000D01*
D12*
X48745Y214000D02*
X56000D01*
X59828Y217828D01*
Y222001D01*
X60039Y222212D01*
X59903Y222347D02*
X60039Y222212D01*
X59828Y222271D02*
X60230Y222674D01*
Y231730D01*
X60250Y231750D01*
D14*
X21500Y68750D02*
D03*
Y100750D02*
D03*
D15*
X173250Y386500D02*
D03*
Y405500D02*
D03*
X91000Y261500D02*
D03*
Y280500D02*
D03*
X218000Y266500D02*
D03*
Y285500D02*
D03*
X609346Y473812D02*
D03*
Y454812D02*
D03*
X586740Y454660D02*
D03*
Y473660D02*
D03*
X636000Y433500D02*
D03*
Y414500D02*
D03*
X664000Y208750D02*
D03*
Y189750D02*
D03*
X29210Y270510D02*
D03*
Y289510D02*
D03*
X664000Y222500D02*
D03*
Y241500D02*
D03*
X270000Y71500D02*
D03*
Y52500D02*
D03*
X253000Y164500D02*
D03*
Y145500D02*
D03*
X643500Y222500D02*
D03*
Y241500D02*
D03*
X332740Y85954D02*
D03*
Y66954D02*
D03*
Y47904D02*
D03*
Y66904D02*
D03*
D16*
X301500Y449000D02*
D03*
X282500D02*
D03*
Y428000D02*
D03*
X301500D02*
D03*
X108500Y360000D02*
D03*
X89500D02*
D03*
X110500Y215000D02*
D03*
X91500D02*
D03*
Y193000D02*
D03*
X110500D02*
D03*
Y168000D02*
D03*
X91500D02*
D03*
X379500Y99000D02*
D03*
X360500D02*
D03*
X625500Y227000D02*
D03*
X606500D02*
D03*
X253492Y447802D02*
D03*
X234492D02*
D03*
X404000Y229000D02*
D03*
X423000D02*
D03*
X589534Y351282D02*
D03*
X570534D02*
D03*
X16764Y253238D02*
D03*
X35764D02*
D03*
X285500Y89000D02*
D03*
X266500D02*
D03*
X149500Y213000D02*
D03*
X130500D02*
D03*
D17*
X70000Y71500D02*
D03*
Y30500D02*
D03*
X71000Y147500D02*
D03*
Y106500D02*
D03*
D18*
X48745Y214000D02*
D03*
Y207500D02*
D03*
Y201000D02*
D03*
Y194500D02*
D03*
Y188000D02*
D03*
D19*
X21995Y213000D02*
D03*
Y189000D02*
D03*
D20*
X46495Y169000D02*
D03*
Y233000D02*
D03*
D21*
X182000Y258000D02*
D03*
X174000D02*
D03*
X166000D02*
D03*
X158000D02*
D03*
X150000D02*
D03*
X142000D02*
D03*
X134000D02*
D03*
X126000D02*
D03*
Y342000D02*
D03*
X134000D02*
D03*
X142000D02*
D03*
X150000D02*
D03*
X158000D02*
D03*
X166000D02*
D03*
X174000D02*
D03*
X182000D02*
D03*
D22*
X112000Y272000D02*
D03*
Y280000D02*
D03*
Y288000D02*
D03*
Y296000D02*
D03*
Y304000D02*
D03*
Y312000D02*
D03*
Y320000D02*
D03*
Y328000D02*
D03*
X196000Y320000D02*
D03*
Y312000D02*
D03*
Y304000D02*
D03*
Y296000D02*
D03*
Y288000D02*
D03*
Y280000D02*
D03*
Y272000D02*
D03*
Y328000D02*
D03*
D23*
X162000Y177000D02*
D03*
D24*
X187400Y115000D02*
D03*
X174700D02*
D03*
X162000D02*
D03*
X149300D02*
D03*
X136600D02*
D03*
D25*
X194500Y425000D02*
D03*
Y444000D02*
D03*
X167500Y425000D02*
D03*
Y434500D02*
D03*
Y444000D02*
D03*
X234480Y145440D02*
D03*
Y164440D02*
D03*
X207480Y145440D02*
D03*
Y154940D02*
D03*
Y164440D02*
D03*
D26*
X52250Y249250D02*
D03*
X61750D02*
D03*
X71250D02*
D03*
X52250Y276250D02*
D03*
X71250D02*
D03*
X660500Y172500D02*
D03*
X651000D02*
D03*
X641500D02*
D03*
X660500Y145500D02*
D03*
X641500D02*
D03*
D27*
X409750Y284250D02*
D03*
X458750D02*
D03*
D28*
X251000Y322500D02*
D03*
Y273500D02*
D03*
D29*
X74000Y226500D02*
D03*
Y211500D02*
D03*
Y182000D02*
D03*
Y197000D02*
D03*
D30*
X93522Y238760D02*
D03*
X112522D02*
D03*
X571500Y330200D02*
D03*
X590500D02*
D03*
X459500Y53000D02*
D03*
X478500D02*
D03*
X131000Y235000D02*
D03*
X150000D02*
D03*
X260500Y354000D02*
D03*
X241500D02*
D03*
X261000Y244000D02*
D03*
X242000D02*
D03*
X382000Y49000D02*
D03*
X401000D02*
D03*
X23500Y522000D02*
D03*
X42500D02*
D03*
X478500Y76000D02*
D03*
X459500D02*
D03*
X460500Y229000D02*
D03*
X441500D02*
D03*
X239420Y480568D02*
D03*
X258420D02*
D03*
X417500Y76000D02*
D03*
X398500D02*
D03*
X417000Y99000D02*
D03*
X398000D02*
D03*
X442772Y99314D02*
D03*
X461772D02*
D03*
X423250Y252000D02*
D03*
X404250D02*
D03*
X444000D02*
D03*
X463000D02*
D03*
X660500Y126000D02*
D03*
X641500D02*
D03*
X51866Y293624D02*
D03*
X70866D02*
D03*
D31*
X643500Y188750D02*
D03*
Y207750D02*
D03*
X232000Y126500D02*
D03*
Y107500D02*
D03*
X197000Y181500D02*
D03*
Y200500D02*
D03*
X438000Y58500D02*
D03*
Y77500D02*
D03*
X221250Y219250D02*
D03*
Y238250D02*
D03*
X201000Y238500D02*
D03*
Y219500D02*
D03*
X218250Y302250D02*
D03*
Y321250D02*
D03*
X176750Y238000D02*
D03*
Y219000D02*
D03*
X23000Y432750D02*
D03*
Y451750D02*
D03*
X636000Y472500D02*
D03*
Y453500D02*
D03*
X116000Y112500D02*
D03*
Y131500D02*
D03*
X209000Y108000D02*
D03*
Y127000D02*
D03*
X306000Y49500D02*
D03*
Y68500D02*
D03*
X356616Y50698D02*
D03*
Y69698D02*
D03*
X212500Y426500D02*
D03*
Y445500D02*
D03*
X219964Y181406D02*
D03*
Y200406D02*
D03*
D32*
X589280Y369062D02*
D03*
X573280D02*
D03*
X237492Y427482D02*
D03*
X253492D02*
D03*
X253500Y405500D02*
D03*
X237500D02*
D03*
X253500Y385250D02*
D03*
X237500D02*
D03*
D33*
X10668Y269494D02*
D03*
Y293878D02*
D03*
D34*
X628000Y245000D02*
D03*
X603616D02*
D03*
D35*
X189639Y288000D02*
X196000D01*
X189639Y288000D02*
X189639Y288000D01*
X182118Y288036D02*
X182154Y288000D01*
X189639D01*
X205230Y145440D02*
X207480D01*
X195500Y145500D02*
X205170D01*
X205230Y145440D01*
X177000Y425000D02*
X190000Y412000D01*
X171388Y425000D02*
X177000D01*
X190000Y412000D02*
Y412000D01*
X150000Y258000D02*
Y272750D01*
X194500Y444000D02*
X210968D01*
D36*
X253891Y77500D02*
X259736Y71655D01*
X253500Y77500D02*
X253891D01*
X283500Y84278D02*
Y84318D01*
X245500Y85500D02*
X253500Y77500D01*
X259736Y71655D02*
X269845D01*
X273323Y77743D02*
X279858Y84278D01*
X661750Y176000D02*
X662243D01*
X660500Y174750D02*
X661750Y176000D01*
X662243D02*
X664000Y177757D01*
Y189750D01*
X660500Y164000D02*
Y174750D01*
X647250Y241500D02*
X667750D01*
X599000Y260500D02*
X665079D01*
X627536Y243250D02*
X638250D01*
X607154Y471812D02*
X609154Y473812D01*
X607154Y467569D02*
Y471812D01*
X609154Y473812D02*
X609346D01*
X599346Y459762D02*
X607154Y467569D01*
X529000Y428192D02*
X574468Y473660D01*
X586740D01*
X392673Y214673D02*
X402000Y224000D01*
X392050Y201930D02*
X392673Y202553D01*
Y214673D01*
X282500Y447507D02*
Y449000D01*
X265750Y417750D02*
Y435000D01*
X280500Y445507D02*
X282500Y447507D01*
X265750Y435000D02*
X276257Y445507D01*
X280500D01*
X245250Y20500D02*
Y85500D01*
X509000Y28400D02*
X521000Y40400D01*
X660500Y164000D02*
X663000Y161500D01*
X404000Y231000D02*
X420500Y247500D01*
X421493Y247750D02*
X421866Y247949D01*
X422371Y248454D01*
X423000Y212998D02*
Y229000D01*
X423250Y252000D02*
Y254000D01*
X101250Y273250D02*
X110750D01*
X274000Y364000D02*
X334010Y424010D01*
Y430276D01*
X289560Y505440D02*
X292000Y503000D01*
Y471000D02*
Y503000D01*
X342646Y452354D01*
Y417646D02*
Y452354D01*
X282000Y461000D02*
X292000Y471000D01*
X119000Y434000D02*
X167500D01*
X70240Y453000D02*
X100000D01*
X119000Y434000D01*
X167500Y434500D02*
Y444000D01*
Y454250D01*
X261000Y182484D02*
Y224000D01*
X282000Y245000D02*
Y357000D01*
X265787Y118213D02*
X283000Y101000D01*
X261000Y224000D02*
X282000Y245000D01*
X174250Y461000D02*
X282000D01*
X261000Y182484D02*
X271780Y171704D01*
X50800Y472440D02*
X70240Y453000D01*
X283000Y101000D02*
X358500D01*
X167500Y454250D02*
X174250Y461000D01*
X282000Y357000D02*
X342646Y417646D01*
X358500Y101000D02*
X360500Y99000D01*
X502000Y432750D02*
X558000Y488750D01*
X581040Y500040D02*
X583040D01*
X580761Y499761D02*
X581040Y500040D01*
X580761Y497761D02*
Y499761D01*
X516000Y433000D02*
X580761Y497761D01*
X516000Y233937D02*
Y433000D01*
X586740Y473660D02*
Y482346D01*
X625406Y499872D02*
X629158D01*
X599346Y446103D02*
Y459762D01*
X594973Y441730D02*
X599346Y446103D01*
X540730Y415730D02*
X566730Y441730D01*
X608076Y475082D02*
Y482542D01*
X566730Y441730D02*
X594973D01*
X608076Y482542D02*
X625406Y499872D01*
X585210Y207250D02*
X589250D01*
X540730Y251730D02*
X585210Y207250D01*
X540730Y251730D02*
Y415730D01*
X319278Y167278D02*
X328250Y176250D01*
X328500D01*
X319278Y134676D02*
Y167278D01*
X302750Y140030D02*
Y174250D01*
X290450Y127730D02*
X302750Y140030D01*
X303250Y220750D02*
X339000Y256500D01*
Y335000D01*
X268292Y373750D02*
X333962Y439420D01*
X359000Y316000D02*
X395000Y352000D01*
X333962Y439420D02*
X334264D01*
X209000Y373750D02*
X268292D01*
X276174Y423674D02*
X280500Y428000D01*
X275082Y121168D02*
X280416Y115834D01*
X275082Y121168D02*
Y135128D01*
X281686Y141732D01*
Y176276D01*
X269748Y188214D02*
X281686Y176276D01*
X269748Y188214D02*
Y220472D01*
X280416Y231140D01*
X312000Y246468D02*
Y351000D01*
X278950Y193723D02*
Y213418D01*
X312000Y246468D01*
X280416Y231140D02*
Y231394D01*
X295000Y245978D01*
Y352000D01*
X280416Y115834D02*
Y115834D01*
X362163Y121243D02*
X366650Y125730D01*
X354074Y111250D02*
X366650Y123826D01*
X278950Y193723D02*
X287173Y185500D01*
X280416Y115834D02*
X285000Y111250D01*
X287173Y185500D02*
X337000D01*
X66802Y355600D02*
X94402Y328000D01*
X25400Y373888D02*
X43688Y355600D01*
X66802D01*
X25400Y373888D02*
Y386080D01*
X94402Y328000D02*
X112000D01*
X150000Y342000D02*
X150850Y342850D01*
Y351764D01*
X172720Y373634D02*
Y386500D01*
X150850Y351764D02*
X172720Y373634D01*
X38909Y477520D02*
X45829Y484440D01*
X30480Y477520D02*
X38909D01*
X285000Y111250D02*
X354074D01*
X366650Y123826D02*
Y125730D01*
X543846Y430244D02*
X568261Y454660D01*
X586740D01*
X314960Y505290D02*
X350012Y470238D01*
Y407012D02*
Y470238D01*
X295000Y352000D02*
X350012Y407012D01*
X312000Y351000D02*
X357632Y396632D01*
Y490728D01*
X315850Y125730D02*
Y131248D01*
X319278Y134676D01*
X250869Y322369D02*
X251000Y322500D01*
X250869Y307257D02*
Y322369D01*
X229855Y286243D02*
X250869Y307257D01*
X215743Y286243D02*
X229855D01*
X444000Y254000D02*
X458507Y268507D01*
Y284007D02*
X458750Y284250D01*
X458507Y268507D02*
Y284007D01*
X409194Y268056D02*
X423250Y254000D01*
X409194Y268056D02*
Y279806D01*
X324358Y258572D02*
Y348358D01*
X365760Y389760D01*
X91352Y168148D02*
X91500Y168000D01*
X65257Y168148D02*
X91352D01*
X63500Y169905D02*
X65257Y168148D01*
X63500Y169905D02*
Y191000D01*
X60000Y194500D02*
X63500Y191000D01*
X264500Y93000D02*
Y96000D01*
Y93000D02*
X266500Y91000D01*
X232000Y107500D02*
X253000D01*
X264500Y96000D01*
X484250Y29082D02*
X506984Y51816D01*
Y83016D01*
X484250Y14750D02*
Y29082D01*
X481000Y109000D02*
X506984Y83016D01*
X618000Y167000D02*
X641000Y144000D01*
X606500Y226000D02*
X608500Y224000D01*
X207480Y154940D02*
Y164440D01*
Y154940D02*
X208730Y153690D01*
X211930D01*
X220465Y145155D01*
Y117035D02*
Y145155D01*
Y117035D02*
X230000Y107500D01*
X232000D01*
X245000Y182000D02*
X252000Y175000D01*
Y164500D02*
Y175000D01*
X234480Y145440D02*
X234510Y145470D01*
X249970D02*
X250000Y145500D01*
X234510Y145470D02*
X249970D01*
X403000Y388000D02*
Y490743D01*
X396000Y381000D02*
X403000Y388000D01*
X385000Y381000D02*
X396000D01*
X339000Y335000D02*
X385000Y381000D01*
X391160Y502583D02*
X403000Y490743D01*
X409000Y367000D02*
X420000Y378000D01*
X416560Y508000D02*
X420000Y504560D01*
Y378000D02*
Y504560D01*
X391146Y367000D02*
X409000D01*
X349000Y324854D02*
X391146Y367000D01*
X391160Y502583D02*
Y508000D01*
X349000Y254000D02*
Y324854D01*
X300529Y205529D02*
X349000Y254000D01*
X317368Y201930D02*
X323167Y207729D01*
X323729D02*
X352000Y236000D01*
X352000D01*
X323167Y207729D02*
X323729D01*
X352000Y236000D02*
X359000Y243000D01*
X294049Y205529D02*
X300529D01*
X359000Y243000D02*
Y316000D01*
X395000Y352000D02*
X439000D01*
X443000Y356000D01*
Y463000D01*
X457200Y477200D01*
X457000Y346000D02*
Y449000D01*
X398000Y336000D02*
X447000D01*
X457000Y346000D01*
Y449000D02*
X482600Y474600D01*
X472000Y443000D02*
X508000Y479000D01*
X456000Y320000D02*
X472000Y336000D01*
Y443000D01*
X555000Y254000D02*
Y411000D01*
X583000Y226000D02*
X606500D01*
X555000Y254000D02*
X583000Y226000D01*
X555000Y411000D02*
X565000Y421000D01*
X502000Y220072D02*
X519050Y203022D01*
X502000Y220072D02*
Y432750D01*
X529000Y242780D02*
X569850Y201930D01*
X529000Y242780D02*
Y428192D01*
X370000Y308000D02*
X398000Y336000D01*
X370000Y232680D02*
Y308000D01*
X341250Y203930D02*
X370000Y232680D01*
X381000Y218280D02*
Y302000D01*
X399000Y320000D01*
X456000D01*
X366650Y201930D02*
Y203930D01*
X381000Y218280D01*
X481000Y134000D02*
X491000Y144000D01*
X641000D01*
X618000Y167000D02*
Y199280D01*
X650000Y174250D02*
Y175000D01*
X653500Y178500D01*
Y199750D01*
X568000Y43600D02*
Y123880D01*
X569850Y125730D01*
X568000Y43600D02*
X584200Y27400D01*
X550000Y36200D02*
Y114662D01*
Y36200D02*
X558800Y27400D01*
X544450Y120212D02*
X550000Y114662D01*
X519050Y123730D02*
X533400Y109380D01*
Y25400D02*
Y109380D01*
X544450Y120212D02*
Y125730D01*
X521000Y40400D02*
Y88000D01*
X493650Y125730D02*
X495299Y124081D01*
Y113701D02*
Y124081D01*
Y113701D02*
X521000Y88000D01*
X519050Y123730D02*
Y125730D01*
X481000Y109000D02*
Y134000D01*
X100000Y393000D02*
X110000Y403000D01*
X125000D02*
X142600Y420600D01*
X110000Y403000D02*
X125000D01*
X142600Y420600D02*
X146000D01*
X94000Y393000D02*
X100000D01*
X106580Y386080D02*
X115700Y395200D01*
X146000D01*
X76200Y386080D02*
X106580D01*
X665079Y243671D02*
Y260500D01*
X618000Y199280D02*
X620650Y201930D01*
X175250Y351250D02*
X210000Y386000D01*
X236750D01*
X175250Y343250D02*
Y351250D01*
X236750Y386000D02*
X237500Y385250D01*
X182000Y346750D02*
X209000Y373750D01*
X167250Y353250D02*
X219500Y405500D01*
X188000Y387000D02*
X213000Y412000D01*
X219500Y405500D02*
X237500D01*
X167250Y343250D02*
Y353250D01*
X213000Y412000D02*
X221500D01*
X173750Y387000D02*
X188000D01*
X173250Y386500D02*
X173750Y387000D01*
X172720Y386500D02*
X173250D01*
X114000Y482000D02*
X207000D01*
X226500Y501500D02*
Y522000D01*
X85750Y510250D02*
X114000Y482000D01*
X207000D02*
X226500Y501500D01*
X63210Y510250D02*
X85750D01*
X577000Y423000D02*
X589000D01*
X609346Y443346D01*
Y454812D01*
X516000Y233937D02*
X544450Y205487D01*
X488000Y436500D02*
X533400Y481900D01*
X493650Y201930D02*
Y206537D01*
X488000Y212187D02*
X493650Y206537D01*
X488000Y212187D02*
Y436500D01*
X209750Y353250D02*
X220500Y364000D01*
X274000D01*
X594000Y413000D02*
X624600Y443600D01*
X582000Y413000D02*
X594000D01*
X624600Y443600D02*
X662000D01*
X519050Y201930D02*
Y203022D01*
X584000Y53000D02*
X609600Y27400D01*
X584000Y110473D02*
X595250Y121723D01*
X584000Y53000D02*
Y110473D01*
X598000Y53808D02*
Y101080D01*
Y53808D02*
X610831Y40977D01*
X598000Y101080D02*
X620650Y123730D01*
X595250Y121723D02*
Y125730D01*
X621423Y40977D02*
X635000Y27400D01*
X610831Y40977D02*
X621423D01*
X282250Y476250D02*
Y488250D01*
X276500Y470500D02*
X282250Y476250D01*
X91250Y214750D02*
X91500Y215000D01*
X82000Y211500D02*
X85250Y214750D01*
X65500Y211500D02*
X74000D01*
X85250Y214750D02*
X91250D01*
X74000Y211500D02*
X82000D01*
X82250Y197000D02*
X85500Y193750D01*
X90750D02*
X91500Y193000D01*
X74000Y197000D02*
X82250D01*
X85500Y193750D02*
X90750D01*
X48745Y194500D02*
X60000D01*
X78500Y276250D02*
X80750Y278500D01*
X89000D02*
X91000Y280500D01*
X80750Y278500D02*
X89000D01*
X71250Y276250D02*
X78500D01*
X91000Y280500D02*
X94000D01*
X77650Y316600D02*
X90250Y304000D01*
X50800Y316600D02*
X77650D01*
X37400Y304600D02*
X80650D01*
X89250Y296000D01*
X620650Y123730D02*
Y125730D01*
X636000Y433500D02*
X636750Y432750D01*
X645450D02*
X660000Y418200D01*
X636750Y432750D02*
X645450D01*
X645500Y207750D02*
X653500Y199750D01*
X643500Y207750D02*
X645500D01*
X643250Y208000D02*
Y222250D01*
Y208000D02*
X643500Y207750D01*
X94000Y320000D02*
X112000D01*
X100500Y377250D02*
X100750Y377000D01*
X115500D01*
X94000Y280500D02*
X99750Y274750D01*
X122700Y369800D02*
X146000D01*
X115500Y377000D02*
X122700Y369800D01*
X126750Y359250D02*
X133757Y352243D01*
X109250Y359250D02*
X126750D01*
X108500Y360000D02*
X109250Y359250D01*
X379500Y111180D02*
X392050Y123730D01*
Y125730D01*
X379500Y99000D02*
Y111180D01*
X166234Y206638D02*
Y257766D01*
X166000Y258000D02*
X166234Y257766D01*
Y206638D02*
X166468Y206404D01*
X158162Y200236D02*
X158324Y200074D01*
X158162Y200236D02*
Y257838D01*
X158000Y258000D02*
X158162Y257838D01*
X61750Y240975D02*
X63965Y238760D01*
X61750Y240975D02*
Y249250D01*
X63965Y238760D02*
X93522D01*
X110500Y193000D02*
X110750Y192750D01*
X118500D01*
X110500Y215000D02*
X118500D01*
X73750Y197250D02*
X74000Y197000D01*
X66500Y197250D02*
X73750D01*
X62750Y201000D02*
X66500Y197250D01*
X48745Y201000D02*
X62750D01*
X48745Y207500D02*
X61500D01*
X65500Y211500D01*
X47500Y248750D02*
X51750D01*
X52250Y249250D01*
X35764Y253238D02*
X43012D01*
X47500Y248750D01*
X10668Y262334D02*
X16764Y256238D01*
X10668Y262334D02*
Y269494D01*
X255500Y164940D02*
X256000Y164440D01*
X220750Y418500D02*
X229732Y427482D01*
X237492D01*
X203250Y418500D02*
X220750D01*
X196750Y425000D02*
X203250Y418500D01*
X194500Y425000D02*
X196750D01*
X253500Y405500D02*
X265750Y417750D01*
X276174Y407924D02*
Y423674D01*
X253500Y385250D02*
X276174Y407924D01*
X253492Y427482D02*
Y447802D01*
X166000Y342000D02*
X167250Y343250D01*
X174000Y342000D02*
X175250Y343250D01*
X182000Y342000D02*
Y346750D01*
X251000Y322500D02*
Y342500D01*
X260500Y352000D02*
Y354000D01*
X251000Y342500D02*
X260500Y352000D01*
X261000Y244000D02*
Y246000D01*
X251000Y256000D02*
X261000Y246000D01*
X251000Y256000D02*
Y261000D01*
X209500Y280000D02*
X215743Y286243D01*
X218000Y266500D02*
X244000D01*
X196000Y272000D02*
X209500D01*
X215000Y266500D01*
X218000D01*
X196000Y280000D02*
X209500D01*
X52250Y249250D02*
X61750D01*
X28702Y270002D02*
X29210Y270510D01*
X10668Y269494D02*
X11176Y270002D01*
X28702D01*
X16764Y253238D02*
Y256238D01*
X110750Y273250D02*
X112000Y272000D01*
X90250Y304000D02*
X112000D01*
X89250Y296000D02*
X112000D01*
X25400Y316600D02*
X37400Y304600D01*
X73000Y330000D02*
X91000Y312000D01*
X57000Y330000D02*
X57000Y330000D01*
X73000D01*
X25400Y342000D02*
X37400Y330000D01*
X57000D01*
X91000Y312000D02*
X112000D01*
X70000Y342000D02*
X92000Y320000D01*
X50800Y342000D02*
X70000D01*
X66000Y365750D02*
X89750Y342000D01*
X126000D01*
X50800Y386080D02*
X52741D01*
X49250Y365750D02*
X66000D01*
X52741Y386080D02*
X77571Y361250D01*
X88250D01*
X133757Y342243D02*
Y352243D01*
Y342243D02*
X134000Y342000D01*
X88250Y361250D02*
X89703Y359797D01*
X38750Y376250D02*
X49250Y365750D01*
X38750Y376250D02*
Y399430D01*
X50800Y411480D01*
X314960Y505290D02*
Y508000D01*
X103000Y470500D02*
X276500D01*
X89060Y484440D02*
X103000Y470500D01*
X45829Y484440D02*
X89060D01*
X231250Y526750D02*
X323610D01*
X226500Y522000D02*
X231250Y526750D01*
X323610D02*
X336180Y514180D01*
X50800Y497840D02*
X63210Y510250D01*
X417450Y207448D02*
X423000Y212998D01*
X417450Y201930D02*
Y207448D01*
X589407Y351409D02*
X589534Y351282D01*
X589280Y369062D02*
X589407Y368935D01*
Y351409D02*
Y368935D01*
X660000Y418200D02*
X662000D01*
X636000Y472500D02*
X658500D01*
X662000Y469000D01*
X145750Y446250D02*
X146000Y446000D01*
X152500Y452500D01*
X608500Y216080D02*
X620650Y203930D01*
X608500Y216080D02*
Y224000D01*
X476250Y6750D02*
X484250Y14750D01*
X349750Y6750D02*
X476250D01*
X331100Y25400D02*
X349750Y6750D01*
X330200Y25400D02*
X331100D01*
X209750Y335000D02*
Y353250D01*
X196000Y328000D02*
X196250Y328250D01*
X205500D01*
X209757Y332507D02*
Y334993D01*
X209750Y335000D02*
X209757Y334993D01*
X205500Y328250D02*
X209757Y332507D01*
X635750Y453750D02*
X636000Y453500D01*
X623500Y453750D02*
X635750D01*
X337000Y185500D02*
X341250Y181250D01*
X290450Y125730D02*
Y127730D01*
X341250Y125730D02*
Y181250D01*
D37*
X614000Y91250D02*
X640250Y117500D01*
Y124750D02*
X642750Y127250D01*
X614000Y78000D02*
Y91250D01*
X640250Y117500D02*
Y124750D01*
X642750Y127250D02*
X660000Y144500D01*
X676500Y149558D02*
Y208750D01*
X672692Y145750D02*
X676500Y149558D01*
X661000Y145750D02*
X672692D01*
X642750Y127250D02*
Y127250D01*
X664000Y208750D02*
X676500D01*
Y223000D01*
X625250Y230000D02*
Y230250D01*
X609500Y245000D02*
X624250Y230250D01*
X606033Y245000D02*
X609500D01*
X624250Y230250D02*
X625250D01*
X583000Y245000D02*
X601290D01*
X572000Y256000D02*
X583000Y245000D01*
X572000Y291686D02*
Y324548D01*
X571500Y330200D02*
X572000Y329700D01*
Y256000D02*
Y291686D01*
X576686Y287000D01*
X671814D01*
X570500Y331200D02*
Y348248D01*
X570534Y348282D02*
Y351282D01*
X570500Y331200D02*
X571500Y330200D01*
X570500Y348248D02*
X570534Y348282D01*
X608000Y72000D02*
X614000Y78000D01*
X607000Y71000D02*
X608000Y72000D01*
X607000Y57000D02*
Y71000D01*
X676500Y223000D02*
Y282314D01*
X676000Y222500D02*
X676500Y223000D01*
X664000Y222500D02*
X676000D01*
X671814Y287000D02*
X676500Y282314D01*
D38*
X212558Y445558D02*
X212741Y445375D01*
X210968Y444000D02*
X212660Y445692D01*
X210500Y426500D02*
X212500D01*
X209000Y428000D02*
Y428500D01*
Y428000D02*
X210500Y426500D01*
X195409Y434591D02*
X202909D01*
X209000Y428500D01*
X258500Y480648D02*
Y491250D01*
Y480480D02*
Y480648D01*
X259080Y481228D01*
X258420Y480568D02*
X258500Y480648D01*
X223750Y352500D02*
X225250Y354000D01*
X162000Y115000D02*
Y129394D01*
X165441Y132835D01*
X160000Y160000D02*
X181985D01*
X185500Y163515D01*
Y207071D01*
X187490Y150691D02*
X197000Y160201D01*
X185500Y207071D02*
X188735Y210306D01*
X63209Y450250D02*
X63459Y450000D01*
X24500Y450250D02*
X63209D01*
X23000Y451750D02*
X24500Y450250D01*
X148500Y231500D02*
X150000Y233000D01*
X146500Y231500D02*
X148500D01*
X150000Y233000D02*
Y235000D01*
X140750Y225750D02*
X146500Y231500D01*
X270000Y52500D02*
X270500Y53000D01*
X287750Y67250D02*
Y71250D01*
X273500Y53000D02*
X287750Y67250D01*
X270500Y53000D02*
X273500D01*
X458750Y52250D02*
X459500Y53000D01*
X458750Y41250D02*
Y52250D01*
X456250Y111709D02*
X460272Y107687D01*
Y100814D02*
Y107687D01*
X259080Y491998D02*
X262600Y495518D01*
Y506440D01*
X52058Y276442D02*
Y284937D01*
X51004Y283883D02*
X51004D01*
X49300Y282179D02*
X51004Y283883D01*
X45959Y282179D02*
X49300D01*
X43180Y279400D02*
X45959Y282179D01*
X51004Y283883D02*
X52058Y284937D01*
X151638Y133638D02*
X168691Y150691D01*
X188735Y210306D02*
Y228015D01*
X180250Y236500D02*
X188735Y228015D01*
X137000Y137000D02*
X160000Y160000D01*
X149700Y110500D02*
Y121000D01*
X639000Y172000D02*
X639000Y172000D01*
X625000Y172000D02*
X639000D01*
X219964Y181406D02*
X220634Y180736D01*
X219917Y181453D02*
X219964Y181406D01*
X641500Y188750D02*
X643500D01*
X635750Y183000D02*
X641500Y188750D01*
X625541Y183000D02*
X635750D01*
X201545Y237045D02*
X217750Y220841D01*
Y220750D02*
Y220841D01*
Y220750D02*
X219250Y219250D01*
X221250D01*
X197000Y160201D02*
Y181500D01*
X168691Y150691D02*
X187490D01*
X137000Y123334D02*
Y137000D01*
X670500Y127000D02*
X674500Y131000D01*
X661000Y127000D02*
X670500D01*
X441750Y217500D02*
Y228750D01*
X441500Y229000D02*
X441750Y228750D01*
Y217500D02*
X442000Y217250D01*
X391250Y252500D02*
X403750D01*
X404250Y252000D01*
X463000D02*
X463250Y252250D01*
X473750D01*
X442175Y202605D02*
X442850Y201930D01*
X70866Y293624D02*
X71240Y293250D01*
X81250D01*
X112386Y238896D02*
Y251864D01*
Y238896D02*
X112522Y238760D01*
X112250Y252000D02*
X112386Y251864D01*
X177250Y210000D02*
Y218500D01*
X198250Y210000D02*
Y218250D01*
X220011Y200453D02*
X235953D01*
X236000Y200500D01*
X219964Y200406D02*
X220011Y200453D01*
X241750Y243750D02*
X242000Y244000D01*
X241750Y228500D02*
Y243750D01*
X241500Y228250D02*
X241750Y228500D01*
X221250Y238250D02*
X221750Y238750D01*
Y252500D01*
X221000Y336709D02*
Y337250D01*
X218250Y321250D02*
Y333959D01*
X221000Y336709D01*
X225250Y354000D02*
X241500D01*
X44000Y522000D02*
X44500Y521500D01*
X60250D01*
X459500Y78000D02*
X467153Y85653D01*
X459500Y76000D02*
Y78000D01*
X456250Y111709D02*
Y112250D01*
X391750Y84750D02*
Y85000D01*
X398500Y76000D02*
Y78000D01*
X391750Y84750D02*
X398500Y78000D01*
X398000Y99000D02*
Y109959D01*
X357168Y70750D02*
X371250D01*
X356616Y69698D02*
X357285Y70367D01*
X306000Y68498D02*
Y82000D01*
Y68498D02*
X306324Y68174D01*
X195500Y145500D02*
X195530Y145470D01*
X232000Y126500D02*
Y137250D01*
X209000Y127000D02*
X209500Y127500D01*
Y136750D01*
X72000Y248133D02*
X78617D01*
X79000Y247750D01*
X74000Y226500D02*
X83000D01*
X74000Y226500D02*
X74000Y226500D01*
X225750Y445250D02*
X232992D01*
X234492Y446750D02*
Y447802D01*
X232992Y445250D02*
X234492Y446750D01*
X225625Y445375D02*
X225750Y445250D01*
X212741Y445375D02*
X225625D01*
X172250Y406500D02*
X173250Y405500D01*
X172250Y406500D02*
Y417250D01*
X52058Y284937D02*
Y293432D01*
Y276442D02*
X52250Y276250D01*
X51866Y293624D02*
X52058Y293432D01*
X52250Y266750D02*
Y276250D01*
Y266750D02*
X57500Y261500D01*
X91000D01*
X234480Y164440D02*
Y176376D01*
X220634Y180736D02*
X230121D01*
X234480Y176376D01*
X197047Y181453D02*
X219917D01*
X197000Y181500D02*
X197047Y181453D01*
X437500Y47250D02*
Y58000D01*
X438000Y58500D01*
X130750Y234750D02*
X131000Y235000D01*
X130750Y213250D02*
Y234750D01*
X130500Y213000D02*
X130750Y213250D01*
X131000Y235000D02*
Y237000D01*
X209250Y209250D02*
X219250Y219250D01*
X200500Y200500D02*
X209250Y209250D01*
X216250Y302250D02*
X218250D01*
X116000Y112500D02*
X116200Y112300D01*
X238238Y481750D02*
X239420Y480568D01*
D39*
X239500Y480648D02*
Y507260D01*
X239420Y480568D02*
X239500Y480648D01*
X238760Y508000D02*
X239500Y507260D01*
X23678Y499562D02*
Y505926D01*
X23500Y506104D02*
X23678Y505926D01*
X23500Y506104D02*
Y522000D01*
X23678Y499562D02*
X25400Y497840D01*
X442850Y127730D02*
X476370Y161250D01*
X575500D01*
X583250Y169000D01*
X221000Y481750D02*
X238238D01*
D40*
X442811Y125691D02*
X442850Y125730D01*
Y127730D01*
X435250Y149250D02*
Y166930D01*
X468250Y199930D01*
Y201930D01*
Y207177D01*
D41*
X442811Y99353D02*
Y125691D01*
X460500Y214927D02*
X468250Y207177D01*
X460500Y214927D02*
Y229000D01*
M02*
