M48
;Layer_Color=9474304
;FILE_FORMAT=4:4
METRIC,LZ
;TYPE=PLATED
T1F00S00C0.3000
T3F00S00C1.0000
T4F00S00C1.1000
T5F00S00C1.5000
T6F00S00C3.2000
;TYPE=NON_PLATED
T7F00S00C3.2000
%
T01
X00607Y00057
X00608Y00072
X00625Y00172
X00625541Y00183
X0058325Y00169
X00663Y001615
X006745Y00131
X004805Y000935
X00467153Y00085653
X0045625Y0011225
X003995Y00112
X0039175Y00085
X0037175Y0007075
X00405Y00063
X00414
X00423
X004375Y0004725
X0045875Y0004125
X0043525Y0014925
X003285Y0017625
X0030275Y0017425
X00245Y00182
X00236Y002005
X001765Y0019975
X001955Y001455
X002095Y0013675
X00232Y0013725
X0028775Y0007125
X00306Y00082
X00321Y00072
Y00063
X00165441Y00132835
X00151638Y00133638
X00137Y00167
Y00176
Y00184
X00129Y00176
X00124Y00156
X00116
Y00148
X00108Y00156
X001185Y0019275
X00083487Y00181763
X00085Y00123
Y00115
X00158324Y00200074
X00166468Y00206404
X0014075Y0022575
X001185Y00215
X0011225Y00252
X0009975Y0027475
X0008125Y0029325
X00094Y0031975
X001005Y0037725
X00094Y00393
X00114Y00418
X00125
X0012Y00425
X00063459Y0045
X0006025Y005215
X0004318Y002794
X00010668Y00278384
X0006025Y0023175
X0006023Y00222674
X00083Y002265
X00079Y0024775
X0015Y0027275
X00182118Y00288036
X0022175Y002525
X002415Y0022825
X0020925Y0020925
X0019825Y0021
X0017725
X0030325Y0022075
X00324358Y00258572
X0039125Y002525
X0047375Y0025225
X00442Y0021725
X00387096Y00394462
X00387152Y00402507
X00378206Y0040259
Y00394462
X0033401Y00430276
X00334264Y0043942
X00314Y00432
X0028225Y0048825
X00221Y0048175
X0022575Y0044525
X002215Y00412
X0019
X0017225Y0041725
X00195409Y00434591
X0022375Y003525
X00221Y0033725
X0037775Y00482
X00377952Y00489204
X00387002Y00489319
X00387Y00482
X00543846Y00430244
X00565Y00421
X00577Y00423
X00582Y00413
X00581Y00397
X00573
X00577Y0039
X006235Y0045375
T03
X002005Y000205
X002455
Y000855
X002005
X005925Y002625
Y003075
X006575
Y002625
T04
X005842Y000254
X006096
X00635
X0062065Y0012573
X0059525
X0056985
X0054445
X0051905
X0049365
X0046825
X0044285
X0041745
X0039205
X0036665
X0034125
X0031585
X0029045
X002794Y000254
X003048
X003302
X003556
X00381
X004064
X004318
X004572
X00508
X005334
X005588
X00167Y00088
X001416
X001162
X000508Y003166
X000254
Y00342
X000508
Y0038608
Y0041148
X000762
Y0038608
X000254
Y0041148
Y0047244
Y0049784
X000508
X000762
Y0047244
X000508
X00146Y00446
Y004206
Y003952
Y003698
X0018796Y00508
X0021336
X0023876
X0026416
X0028956
X0031496
X0034036
X0036576
X0039116
X0041656
X004572
X004826
X00508
X005334
X005588
X0054445Y0020193
X0051905
X0049365
X0046825
X0044285
X0041745
X0039205
X0036665
X0034125
X0031585
X0029045
X0056985
X0059525
X0062065
X00662Y004182
Y004436
Y00469
X00635Y00508
X006096
X005842
T05
X0002Y00023
X00021Y00138
T06
X006604Y000762
X001397Y000254
X006604Y003556
T07
X001524Y00508
M30
